<?xml version="1.0" encoding="utf-8"?>
<!-- Generator: Adobe Illustrator 15.0.2, SVG Export Plug-In . SVG Version: 6.00 Build 0)  -->
<!DOCTYPE svg PUBLIC "-//W3C//DTD SVG 1.1//EN" "http://www.w3.org/Graphics/SVG/1.1/DTD/svg11.dtd">
<svg version="1.1" id="Layer_1" xmlns="http://www.w3.org/2000/svg" xmlns:xlink="http://www.w3.org/1999/xlink" x="0px" y="0px"
	 width="100px" height="100px" viewBox="0 0 100 100" enable-background="new 0 0 100 100" xml:space="preserve">
<path d="M71.797,48.282"/>
<path d="M71.512,47.301"/>
<path d="M69.055,43.834"/>
<path d="M69.055,43.834c0.116-0.12,0.146-0.341,0.146-0.505c0.047-0.284,0.004-0.28,0.004-0.28c0.295-0.588,0.702-2.841,0.82-3.548
	c0.117-0.707-0.294-4.182-0.472-5.124c-0.176-0.942,0.118-1.708,0.118-1.708c-0.06-0.058,0.177-0.588,0.177-0.765
	c0-0.436-0.08-0.713-0.304-0.994l0.009-0.008c0,0,0.766-0.824,2.828-2.121c2.061-1.295,4.181-4.004,5.064-5.359
	c0.883-1.355,2.002-3.299,2.591-3.887c0.589-0.589,1.413-1.061,1.296-1.296c-0.118-0.236-0.707-0.294-1.885,0.707
	s-4.535,6.655-6.242,8.304c-1.549,1.495-3.725,2.941-4.119,3.199c-0.125-0.063-0.267-0.057-0.423,0.099
	c-0.296,0.236-0.331,0.766-0.42,1.06l0.132,1.179l0.229,1.118c1.614,6.276,0.711,6.184,0.593,7.363
	c-0.118,1.177-0.352,1.648-0.352,1.648c-0.192-0.038-0.534-0.027-0.749,0.101c-0.212-0.169-0.416-0.322-0.604-0.454
	c-1.178-0.824-3.357-2.002-5.123-2.12c0,0-3.477,0.53-4.241,1.178c-0.766,0.647-1.002,1.648-1.002,1.648l-0.011,0.026
	c0.151,0.06,0.303,0.12,0.424,0.21c0.471,0.354,0.707,1.061,0.824,1.59c0.118,0.707,0.266,1.487-0.146,2.017
	c-0.04,0.053-0.084,0.105-0.133,0.155c-0.196,0.687-0.397,1.455-0.369,1.892c0.06,0.883,0.707,2.061,1.944,3.003
	c1.237,0.943,3.593,1.473,4.771,1.708c1.178,0.236,2.591,0.413,3.357,0.472c0.766,0.059,1.06-0.295,1.473-0.412
	c0.412-0.118,1.767,0.766,1.767,0.766c0.706,0.059,1.001,0.117,1.177-1.413c0.309-1.474-0.001-3.447-0.406-5.001
	c-0.113-0.042,0,0,0,0c1.191,0.442,1.637,0.964,2.821,1.878c1.296,1.001,3.651,3.77,3.946,4.124c0.294,0.353,1.295,1.06,1.295,1.06
	c0.412,0.354,0.825,0.589,1.414,0.647c0.118,0,0.354,0,0.471-0.059c0,0,0.412,0.295,0.942,0.53s4.358,1.591,5.89,2.355
	c1.531,0.766,4.24,1.886,5.654,3.357c1.414,1.473,1.946,1.918,2.238,2.355c0.353,0.53,0.412,1.001,0.471,1.061
	c0,0.235,0.059,0.412,0.178,0.647c0.234,0.354,0.824,0.354,0.883-0.177c0-0.177-0.177-0.53-0.236-0.765
	c-0.117-0.236-0.294-0.413-0.412-0.648c0,0-1.354-2.474-4.417-4.241c-3.062-1.767-6.125-3.121-8.009-3.71
	c-1.886-0.589-2.828-1.178-2.828-1.178c0.118-0.236,0.178-0.354,0.178-0.647c-0.06-0.06-0.06-0.06-0.119-0.118
	c-0.117-0.118-0.412-0.059-0.588-0.177c-0.119-0.059-0.236-0.235-0.412-0.294c0,0-1.885-1.531-3.182-2.827
	c-1.295-1.296-2.709-2.694-3.475-3.105c-0.478-0.258-1.852-0.753-2.988-1.018l0,0c-0.207-0.707-0.41-1.161-0.545-1.397
	C70.681,45.436,69.894,44.591,69.055,43.834 M66.432,50.257c-0.3,0.481-0.797,0.571-1.279,0.511
	c-0.481-0.06-1.188-0.065-1.369-0.546C63.753,50.146,63.736,50,63.727,50h0.004c-0.039-1,0.018-0.862,0.109-1.048
	c0.089-0.198,0.227-0.412,0.391-0.509c0.637-0.589,1.85-0.456,2.319,0.224c0.032,0.046,0.06,0.077,0.079,0.128
	C66.904,49.217,66.669,49.842,66.432,50.257z"/>
<path d="M64.23,48.369c0.637-0.588,1.85-0.419,2.319,0.26c0.032,0.046,0.06,0.096,0.079,0.147c0.163,0.407-0.047,0.959-0.256,1.326
	c-0.294,0.471-0.78,0.56-1.251,0.5c-0.472-0.059-1.163-0.206-1.34-0.677c-0.024-0.062-0.042-0.136-0.052-0.217
	c-0.039-0.308,0.018-0.715,0.109-0.902C63.929,48.607,64.066,48.467,64.23,48.369z M64.931,48.35c0,0-0.28,0-0.383,0.059
	c-0.104,0.058-0.206,0.132-0.206,0.132c-0.059,0.177-0.324,0.383-0.031,0.619c0.178,0.117,0.59,0,0.767-0.059
	c0.235-0.059,0.53,0,0.706-0.177C66.255,48.394,65.226,48.35,64.931,48.35z"/>
<path d="M63.31,76.184c0.192-0.325-0.066-1.251-0.176-1.522c-0.118-0.295-0.472-1.236-0.53-1.531
	c-0.117-0.53-0.354-1.59-0.412-2.179c-0.059-0.413-0.264-0.648-0.56-0.942c-0.1-0.1-0.632-0.273-0.632-0.355c0-0.104,0-0.238,0-0.41
	c0-1.237-0.438-2.65-1.026-4.123c-0.589-1.472-1.775-4.889-1.952-5.478c-0.165-0.546-0.563-0.586-0.623-0.588
	c0-0.236-0.047-0.648-0.225-0.824c-0.235-0.354-3.451-1.969-4.647-2.18c-1-0.177-3.177-0.53-3.589-0.647
	c-0.177-0.119-0.352-0.236-0.529-0.295c0.294-0.118,0.708-0.177,1.061-0.235c0.412-0.06,0.766-0.177,1.119-0.413
	c0.353-0.176,0.706-0.294,1.002-0.589c0.235-0.294,0.53-0.707,0.706-1.06c0.219-0.493,0.539-1.188,0.537-1.758
	c0.951-0.209,1.86-0.552,2.702-1.128c0.295-0.236,0.53-0.412,0.706-0.707c0.178-0.295,0.413-0.589,0.59-0.825
	c0.313-0.418,0.882-0.73,1.252-1.125c0.049-0.05,0.093-0.103,0.133-0.155c0.412-0.53,0.265-1.31,0.146-2.017
	c0,0-0.354-1.237-0.824-1.59c-0.121-0.09-0.272-0.15-0.424-0.21c-0.143-0.058-0.286,0.103-0.4,0.017
	C56.479,43.077,56.302,43,56.008,43H55.92c-0.266-1-0.597-0.497-0.906-0.629C54.807,42.302,54.598,42,54.373,42
	c0.004,0,0.007,0,0.01,0C54.33,42,54,41.972,54,41.945c0-0.044,0-0.044,0-0.088l0.126-0.004c-0.134-0.16-0.27-0.321-0.432-0.482
	c-0.221-0.176-0.411-0.353-0.589-0.574c-0.309-0.353-0.559-0.795-0.823-1.192c-0.221-0.265-0.523-0.442-0.832-0.486
	c-0.276-0.04-0.727,0.027-0.914,0.263l-0.026,0.172c-0.067-0.013-0.134-0.038-0.202-0.038c-0.177,0-0.309,0.132-0.397,0.265
	c-0.309,0.309-0.53,0.663-0.751,0.972c-0.265,0.397-0.662,0.663-0.883,1.016c-0.133,0.221-0.309,0.441-0.442,0.618l-0.22,0.404
	c-0.239,0.074-0.427,0.141-0.487,0.17c-0.221,0.088-0.486,0.177-0.663,0.309c-0.088,0.088-0.31,0.398-0.354,0.442
	c-0.177,0.177-0.309,0.397-0.486,0.486c-0.309,0.132-0.707,0.044-1.06,0.088c-0.309,0.088-0.707,0.177-1.016,0.354
	c-0.129,0.085-0.258,0.214-0.387,0.302c-0.003,0.003-0.007,0.005-0.011,0.007c-0.021,0.011-0.042,0.019-0.062,0.025
	c-0.001,0.001-0.002,0.001-0.004,0.001c-0.204,0.092-0.405,0.18-0.605,0.27c0.053-0.276,0.098-0.595,0.098-0.915
	c0,0,0.235-1.825,0.235-2.65c0-0.824,0.059-3.004,0.059-3.004c0.117-0.058,0-0.177-0.06-0.294c-0.117-0.294-0.177-0.354-0.471-0.471
	c-0.472-0.236-0.943-0.059-1.179,0.412c-0.111,0.335-0.117,0.884-0.067,1.241c-0.106,0.061-0.05,0.176-0.05,0.291
	c-0.06,0.353-0.294,0.765-0.413,1.118c-0.118,0.413-0.471,0.766-0.354,1.237c0.045,0.179,0.056,0.392,0.162,0.56L40.4,42.799
	c0,0.471,0,0.883-0.119,1.296c-0.118,0.471-0.118,0.942-0.294,1.414c-0.073,0.217-0.056,0.301,0.05,0.346
	c-0.042,0.283-0.24,0.452-0.345,0.714c0.056,0.056,0.151,0.085,0.242,0.087c0.102,0.004,0.198-0.025,0.229-0.087l0.085,0.072
	c-0.117,0.121-0.228,0.252-0.316,0.399c-0.118,0.236-0.238,0.589-0.415,0.824c-0.117,0.295-0.237,0.53-0.414,0.766
	c-0.022,0.066-0.044,0.117-0.063,0.163c-0.019,0.043-0.019,0.043,0,0l-0.114-0.045c-0.059,0-0.059,0-0.059-0.06
	c-0.118-0.177-0.295-0.235-0.472-0.412c-0.177-0.119-0.412-0.354-0.588-0.53c-0.142-0.238-0.441-0.588-0.735-0.686L37,47.04V47
	h0.043c0,0,0.06-0.187,0.118-0.246c0.177-0.354,0.295-0.535,0.354-0.83c0.118-0.529,0-1.063-0.059-1.593
	c-0.177-1.119-0.295-2.239-0.53-3.299c-0.119-0.589-0.177-1.179-0.354-1.709c-0.236-0.53-0.177-1.118-0.354-1.648
	c-0.059-0.295-0.177-0.53-0.177-0.826c0-0.294-0.059-0.588-0.118-0.883c-0.177-0.53-0.294-0.982-0.53-1.513
	C35.306,34.232,35.151,34,34.93,34h0.11c0,0,0-0.313-0.059-0.371c-0.059-0.06-0.235-0.126-0.354-0.186
	c-0.177-0.059-0.354-0.211-0.588-0.329c-0.413-0.177-0.943-0.087-1.414-0.146C32.037,32.911,31.566,33,30.917,33
	c-0.235,0-0.53,0-0.765,0c-0.295,0-0.53,0.01-0.825,0.07c-0.53,0.117-1.06,0.182-1.59,0.242c-0.53,0.059-1,0.09-1.59,0.09
	c-0.471,0-1.06,0.046-1.531-0.19c-0.087,0.087-0.103,0.212-0.074,0.343l-5.205,4.448C19.167,38.177,19,38.246,19,38.479
	c0,0.009,0,0.018,0,0.027c0,0.015-0.031,0.03-0.028,0.043c-0.304,0.235-0.893,0.303-1.194,0.407
	c-0.318,0.109-0.645,0.218-0.919,0.384c-0.051,0.028-0.111,0.07-0.162,0.119l-0.113-0.003c-0.212,0.072-0.467,0.089-0.729,0.155
	c-0.205,0.023-0.51,0.033-0.721,0.106c-0.084,0.021-0.136,0.068-0.171,0.129c-0.202-0.062-0.45,0.041-0.672,0.148l-0.014-0.029
	c-0.097,0.025-0.217,0.085-0.28,0.003c-0.491,0.099-1.002-0.156-1.473-0.215c-0.207-0.01-0.462-0.01-0.708,0.04
	c-0.196,0.039-0.373,0.177-0.559,0.265c0.147-0.029,0.432-0.138,0.599-0.069c0.118,0.079,0.226,0.363,0.265,0.56
	c0.265-0.207,0.864-0.276,1.169-0.286c0.196-0.04,0.403-0.03,0.599-0.069c0.091-0.018,0.241,0.039,0.293,0.001
	c0.202,0.023,0.519,0.054,0.661,0.033c-0.011,0.035-0.026,0.069-0.045,0.102c0.193,0.076,0.368-0.104,0.572-0.126
	c0.163-0.079,0.361-0.053,0.573-0.125c0.249-0.017,0.416-0.139,0.627-0.259c0.032,0.049,0.095,0.09,0.201,0.117
	c0.241,0.083,0.437-0.245,0.648-0.317c0.324-0.159,0.599-0.324,0.874-0.49c0.218-0.122,0.43-0.195,0.642-0.268
	c0.045,0.006,0.096-0.029,0.143-0.031c0.04,0.041,0.088,0.08,0.148,0.12c0.135,0.119,0.129,0.169,0.262-0.066
	c0.069-0.142,0.082-0.241,0.201-0.377l5.472-4.361c0.083,0.02,0.174,0.034,0.28,0.055c0.17,0.034,0.589-0.2,0.589-0.2
	c0.177,0,0.354,0,0.53,0c0.353,0,0.766,0,1.119,0c0.707,0,1.414-0.018,2.12-0.018c0.707,0,1.414-0.038,2.179-0.097
	c0.354-0.059,0.648-0.137,1.06-0.078c0.236,0.059,0.472,0.196,0.707,0.314c0.06,0,0.177,0.069,0.236,0.069l0.011,0.036
	c-0.072,0.024-0.129,0.07-0.129,0.147c0,0.118,0.177,0.178,0.236,0.237c0.118,0.059,0.118,0.177,0.177,0.295
	c0.058,0.177,0.117,0.354,0.117,0.589c0,0,1.001,4.183,1.001,7.068c0,2.886,0.119,4.123,0.648,4.771
	c0.101,0.123,0.174,0.204,0.226,0.253c0.009,0.008,0.046,0.211,0.046,0.211c-0.305-0.283-0.67-0.405-1.038-0.405
	c-0.059-0.413-0.177-0.942-0.354-1.354c-0.177-0.413-0.294-0.766-0.471-1.237c-0.119-0.354-0.177-0.884-0.413-1.179l-0.471-0.118
	c0,0-1.413-0.824-2.533-0.942c-1.119-0.118-4.711-0.471-6.537-0.118c-1.826,0.354-4.358,0.884-6.95,2.768
	c-2.591,1.885-4.423,4.536-4.777,5.36S12,51.928,12,52.163c0,0.236,0,0.413,0,0.413c0,1.236,1.715,2.297,2.892,2.591
	c0.354,0.117,0.917,0.236,1.27,0.294c0.413,0.06,0.812,0.236,1.165,0.354c0.707,0.236,1.525,0.236,2.231,0.354
	c1.178,0.118,2.382,0.177,3.56,0.177c0.271,0,0.543-0.01,0.798-0.022c-3.226,2.608-7.139,5.795-7.139,5.795
	c-0.118,0.294-0.586,0.177-0.527,0.588l-5.417,6.007c-0.158,0.212-0.362,0.328-0.362,0.561c0,0.027,0.003,0.058,0.009,0.088
	c0.005,0.018,0.009,0.034,0.015,0.049c-0.314,0.322-0.973,0.49-1.309,0.658c-0.354,0.178-0.707,0.354-1.002,0.589
	c-0.069,0.052-0.143,0.129-0.2,0.214L7.89,70.833c-0.236,0.118-0.53,0.176-0.824,0.295c-0.236,0.059-0.589,0.117-0.825,0.234
	c-0.094,0.039-0.146,0.101-0.176,0.178H6.063c-0.179-0.029-0.374,0.047-0.56,0.152l-0.005-0.092
	c-0.115,0.008-0.264,0.046-0.317-0.061c-0.588,0-1.118-0.412-1.648-0.589c-0.236-0.06-0.53-0.118-0.825-0.118
	c-0.235,0-0.471,0.118-0.707,0.176c0.177,0,0.53-0.058,0.707,0.061c0.119,0.117,0.177,0.471,0.177,0.706
	c0.354-0.177,1.06-0.118,1.414-0.06c0.236,0,0.472,0.06,0.707,0.06c0.078,0,0.178,0.05,0.256,0.067C5.168,71.904,5,71.964,5,72.011
	v0.059c0,0,0.751,0,0.981-0.064c-0.009,0.042-0.02,0.084-0.036,0.124c0.236,0.06,0.413-0.177,0.648-0.235
	c0.177-0.118,0.413-0.118,0.649-0.236c0.287-0.057,0.462-0.227,0.69-0.398c0.044,0.053,0.124,0.09,0.252,0.104
	c0.295,0.06,0.472-0.354,0.707-0.471c0.353-0.235,0.647-0.471,0.942-0.707c0.236-0.176,0.471-0.293,0.707-0.412
	c0.055,0,0.108-0.049,0.163-0.057c0.053,0.041,0.116,0.078,0.191,0.116c0.177,0.117,0.177,0.177,0.294-0.118
	c0.06-0.176,0.06-0.295,0.177-0.471l5.713-5.948c0.471,0,1.001-0.647,1.237-1.001c0,0,4.535-3.181,5.536-4.063
	c0.8-0.706,1.413-1.488,1.896-1.983c0.331-0.036,0.66-0.098,0.99-0.196c1.236-0.354,2.474-0.471,3.652-0.942
	c0.189-0.076,0.379-0.151,0.566-0.228c0.313,0.222,0.59,0.484,0.964,0.699c0.53,0.294,1.001,0.647,1.649,0.824
	c0.294,0.059,0.824,0.177,1.178,0.117c0.413-0.059,0.707-0.339,1.06-0.574c0.18-0.144,0.36-0.397,0.471-0.574h0
	c0.766,0.441,1.943-0.132,2.591-0.545c0.471-0.294,0.595-0.597,0.831-1.067c0.235-0.412,0.3-1.004,0.3-1.3v-0.006
	c0-0.014,0.281-0.029,0.229-0.056c0.052,0.026,0.32,0.041,0.381,0.054c0.075,0.016,0.245,0.031,0.277,0.063
	c0.118,0.118,0.109,0.236,0.228,0.295c0.028,0.028,0.111,0.028,0.169,0.021c-0.085,0.073-0.073,0.227-0.073,0.331
	c-0.059,0.413-0.111,0.767,0.125,1.12c0.177,0.412,0.356,0.706,0.474,1.119c0.118,0.471,0.296,1.06,0.826,1.06l0.064-0.005
	c0.014,0.197,0.065,0.396,0.114,0.594c0.118,0.354,0.472,0.589,0.589,0.883c0.118,0,0.177,0.119,0.236,0.177
	c0.177,0.236,0.354,0.413,0.53,0.648c0.412,0.354,0.824,0.707,1.237,1.061c0.294,0.235,0.883,0.588,1.295,0.647
	c0.167,0,0.807-0.053,0.877-0.208c0.115,0.308,0.33,0.634,0.428,0.797c0.107,0.143,0.403,0.566,0.757,0.747v0.001
	c-0.088,0.249,0.009,0.43,0.009,0.43s0.82,3.357,1.526,6.125c0.707,2.769,1.234,2.649,1.234,2.649
	c-0.008,0.046-0.02,0.09-0.031,0.135c-0.061,0.251-0.138,0.51-0.088,0.809c0.059,0.294,0.235,0.59,0.235,0.942
	c0,0.294-0.001,0.589,0.06,0.942c0.059,0.235,0.059,0.529,0.059,0.766c0.059,0.294,0.176,0.59,0.176,0.883
	c0.059,0.59-0.148,1.178-0.148,1.768C51.855,77.104,52,76.999,52,76.911c0-0.004,0-0.008,0-0.012c0,0.004,0,0.007,0,0.011
	l0.16,0.106c0.025,0.125,0.156,0.27,0.218,0.412c0.08,0.192,0.206,0.383,0.235,0.531c0.117,0.235,0.195,0.528,0.254,0.764
	c0.075,0.226,0.088,0.414,0.188,0.414l0,0c0.116,0.088,0.181,0.352,0.239,0.527c0.059,0.119,0.119,0.297,0.178,0.414
	c0.104,0.309,0.163,0.438,0.373,0.309c0.033,0.055,0.074,0.109,0.1,0.162c0.119,0.236,0.296,0.473,0.474,0.707
	c0.176,0.236,0.529,0.354,0.646,0.648c0.061-0.235,0.295-0.235,0.354-0.471c0.06-0.235-0.176-0.412-0.293-0.589
	c-0.195-0.292-0.514-0.586-0.816-0.812c0.082-0.084,0.135-0.172,0.109-0.248c-0.06-0.119-0.236-0.236-0.295-0.296
	c-0.118-0.117-0.178-0.235-0.295-0.353c-0.037-0.074-0.051-0.17-0.084-0.232c0.124-0.07,0.233-0.155,0.261-0.239
	c0.118-0.177-0.235-0.589-0.353-0.824c-0.225-0.394-0.449-0.894-0.727-1.296c0.232-0.217,0.002-0.354-0.099-0.707
	c-0.06-0.294-0.06-0.589-0.118-0.942c-0.059-0.353-0.177-0.706-0.234-1.06c-0.119-0.589-0.06-1.295-0.295-1.943
	c-0.059-0.236-0.059-0.648-0.295-0.824c0.53-0.824,0.354-1.178-0.236-3.357c-0.588-2.18-2.237-6.714-2.237-6.714l-0.03,0.003
	c-0.033-0.314-0.115-0.639-0.147-0.827c-0.117-0.53-0.589-1.061-1.001-1.414c-0.413-0.354-1.001-0.529-1.532-0.706
	c-0.53-0.236-1.001-0.472-1.472-0.767c-0.413-0.354-0.883-0.647-1.237-1.001c-0.111-0.111-0.118-0.168-0.215-0.273l0.038-0.021
	c0.058-0.177,0.235-0.294,0.354-0.53c0.117-0.177,0.177-0.353,0.235-0.588c0.118-0.413,0-0.766-0.118-1.119
	c-0.059-0.294-0.353-0.59-0.294-0.884l-0.003-0.013c0.355-0.092,0.69-0.225,1.004-0.399c0.589-0.354,1.119-0.766,1.649-1.178
	c0.53-0.413,1.06-0.531,1.708-0.471c0.172,0.031,0.339,0.074,0.505,0.122c-0.397,0.076-0.627,0.592-0.859,0.88
	c-0.294,0.412-0.589,0.824-0.824,1.236c-0.295,0.471-0.589,0.594-0.648,1.123c0,0.332,0.052,0.83,0.156,0.83
	c-0.005,0-0.281,0.203-0.347,0.458c-0.049,0.192,0.106,0.449,0.106,0.475c0.647,0.589,1.25,1.354,2.075,1.825
	c0.53,0.296,1.155,0.53,1.745,0.707c0.647,0.177,1.284,0.236,1.932,0.354c1.06,0.236,2.145,0.412,3.204,0.884
	c0.52,0.207,0.96,0.416,1.456,0.178c0.066,0.367,0.238,1.298,0.506,2.768c0.354,1.943,2.24,5.771,2.24,5.771
	c0.295,0.412,0.649,0.824,1.003,1.236c0.036,0,0.141,0.111,0.215,0.211c0.005,0.149,0.051,0.316,0.082,0.437
	c0.117,0.235,0.235,0.472,0.412,0.706c0.176,0.236,0.176,0.59,0.234,0.885c0.119,0.589,0.236,1.001,0.413,1.59
	c0.117,0.529,0.117,1.236,0.235,1.767c0.059,0.235,0.117,0.53,0.235,0.767c0.067,0.133,0.229,0.266,0.409,0.313
	C62.891,76.391,63,76.546,63,76.546c0,0.059,0.361,0.354,0.42,0.471c0.117,0.177,0.093,0.295,0.151,0.412
	c0.117,0.236,0.046,0.178,0.341,0.236c0.354,0.117,0.288,0.295,0.464,0.588c0.119,0.236,0.351,0.531,0.586,0.707
	c0.178-0.059,0.176-0.234,0.176-0.411c0,0.117-0.001,0.294,0.117,0.411c0.176,0.119,0.177-0.059,0.353-0.117
	c0.296-0.059,0.589-0.059,0.884-0.177c0.295-0.06,0.589-0.177,0.825-0.235c0.294,0,0.529,0.059,0.824,0.118
	c-0.236-0.296-0.531-0.472-0.767-0.707c-0.354-0.413-0.53-0.353-0.942-0.177c-0.295,0.059-0.648,0.177-0.941,0.177
	c-0.104,0-0.25-0.045-0.363,0.021c-0.018,0.13-0.05,0.261-0.05,0.39c0-0.058-0.059-0.294,0-0.354
	c0.016-0.015,0.032-0.028,0.05-0.038c0.005-0.047,0.01-0.094,0.01-0.141c-0.236-0.059-0.354-0.063-0.53-0.299
	c-0.113-0.112-0.118-0.286-0.326-0.247c0.313-0.072,0.085-0.423-0.087-0.538c-0.234-0.117-0.411-0.145-0.647-0.321L63.31,76.184z
	 M49.559,42.501c0.354-0.301,0.55-0.834,0.745-1.264c0.133-0.309,0.224-0.574,0.401-0.883c0.034-0.067,0.126-0.192,0.207-0.325
	c0.004,0.004,0.01,0.01,0.017,0.016c0.176,0.044,0.398,0.53,0.53,0.75c0.178,0.265,0.311,0.479,0.531,0.744
	c0.072,0.108,0.234,0.46,0.388,0.46c-0.001,0-0.002,0-0.003,0c-0.188,0-0.332,0.056-0.387,0.07
	c-0.221,0.044-0.484,0.203-0.662,0.292c-0.221,0.088-0.353,0.189-0.573,0.277c-0.221,0.044-0.359-0.038-0.58-0.083
	C49.969,42.534,49.735,42.521,49.559,42.501L49.559,42.501z M39,51.574c0,0.117-0.536,0.589-0.772,0.648
	c-0.235,0.059-0.239,0.177-0.475,0.354c-0.412,0.294-0.767,0.588-1.12,0.941c-0.294,0.236-0.502,0.59-0.679,0.942
	c-0.017,0.018-0.014,0.033-0.023,0.05c-0.023,0.038-0.028,0.076-0.061,0.114c-0.481-0.155-1.022-0.321-1.48-0.576
	c-0.32-0.146-0.639-0.276-0.959-0.394c0.514-0.516,0.989-1.008,1.282-1.618l0.211,0.068c0.177,0.118,0.471,0.235,0.707,0.177
	c0.413-0.118,0.354-0.412,0.589-0.589c0.294-0.177,0.824-0.118,1.119-0.118l0.221-0.086c0.004,0.01,0.009,0.019,0.015,0.027
	c0.177,0.177,0.824-0.059,1.06-0.059l0.028-0.036c0.089,0.08,0.007,0.117,0.155,0.153c0.138,0,0.184-0.021,0.184-0.013V51.574z
	 M43.757,55.991c0,0,0,0-0.059,0v-0.059h0.059V55.991z"/>
</svg>
