<svg xmlns="http://www.w3.org/2000/svg" xmlns:xlink="http://www.w3.org/1999/xlink" version="1.1" id="Your_Icon" x="0px" y="0px" width="100px" height="100px" viewBox="0 0 100 100" enable-background="new 0 0 100 100" xml:space="preserve">
<g>
	<path fill="none" d="M39.483,52.524c0.056,0.134,0.119,0.321,0.186,0.558C39.571,52.717,39.507,52.519,39.483,52.524z"/>
	<path fill="#000000" d="M98.341,56.111c-0.606-1.491-4.029-2.88-5.47-2.16c-1.439,0.72-3.954,2.18-4.75,1.729   c-1.413-0.803-2.351-10.098-6.909-17.274c-1.104-1.74-4.734-11.916-13.387-17.849c-3.624-2.484-7.991-5.882-14.548-6.314   c-3.736-0.246-10.014-0.72-19.566,0.269c0.042-2.502,7.063-8.502,6.333-9.212c-1.176-1.144-2.184,1.234-9.356,3.022   c-1.151,0.432-3.513,2.727-5.636,2.711c-0.452-0.92-0.452-4.7-3.576-4.006c-0.699,0.154-2.886,2.114-4.099,2.737   c-1.708,0.876-3.395,3.594-4.193,4.38c-0.688,0.678-2.742,3.354-3.8,4.11c-6.18,4.417-7.909,9.75-8.349,15.978   C0.833,37.118,1.03,51.13,14.135,57.838c1.175,4.381-0.34,27.875-1.492,29.315c-1.151,1.439-5.13,3.936-5.417,5.087   c-0.288,1.151-0.685,1.594,0.576,2.304c1.456,0.818,4.009,0.355,5.47,0c2.83-0.69,4.475-3.82,4.919-4.726   c0.802-1.634,0.55-5.352,0.982-7.223c0.432-1.871,4.535-24.238,4.823-25.245c1.802,0.359,6.371,0.695,9.685,5.163   c1.22,1.643,5.072,18.994,5.836,21.758c0.019,0.067,0.947,4.141,0.896,4.235c-0.05,0.094-1.424-3.437-1.524-3.333   c-0.344,0.354-0.581,0.363-1.028,0.395c-1.009,0.072-4.439,1.655-4.396,2.81c0.072,1.874,4.102,1.052,5.043,1.225   c0.571,0.105,1.36-0.439,1.824-0.529c-0.383,2.043-2.544,2.835-2.403,5.394c0.064,1.15,1.691,1.492,2.089,1.658   c0.708,0.293,4.499-0.121,5.403-0.36c1.515-0.402,2.236-2.92,1.515-4.577c-0.618-1.422-0.649-4.756-0.792-6.052   c-1.789-5.13-4.706-24.336-6.152-30.751c1.613,6.764,6.43,29.646,6.683,29.585c0.654,0,2.959-5.79,4.44-9.496   c-0.475-3.311-2.98-9.283-2.929-13.102c1.819-7.108,2.35-9.968,2.228-12.262c3.075-1.235,5.165-2.346,5.607-2.788   c3.451,0.776,7.2,11.797,9.071,12.804c1.871,1.008,10.792,7.204,10.648,9.65c-0.145,2.448-1.126,10.61-2.004,11.748   c-0.708,0.919-3.494,1.38-4.178,2.161c-1.01,1.152-0.964,1.946,0.332,2.521c1.296,0.576,7.883,0.791,9.178-0.505   c1.296-1.295,2.449-19.956,3.025-21.685c0.549-1.646-3.159-3.231-4.311-5.535c-1.151-2.303-2.665-10.357-3.253-11.829   c-0.494-1.232-0.076-7.608-2.244-14.446c1.956,1.334,2.964,12.157,3.108,13.492c0.157,1.456,2.563,10.159,3.025,11.617   c0.505,1.585,2.595,3.242,3.314,3.818s1.563,2.048,1.347,2.885c-0.482,1.87-0.623,3.525-0.194,4.104   c0.241,0.324,3.805,1.051,5.531,0.475c1.728-0.576,7.348-5.254,8.375-6.095C98.553,60.064,99.1,57.975,98.341,56.111z    M32.07,10.891c1.18-1.236,4.454-3.061,7.231-4.862c-2.017,2.369-5.547,5.476-6.004,8.071c-0.288,1.636,0.312,3.961-0.913,3.674   c-0.864-0.649-1.477-1.911-1.513-2.594C30.818,14.17,31.108,11.897,32.07,10.891z M26.741,28.88   c0.141-0.032,0.313-0.088,0.51-0.154c0.508-0.169,1.202-0.401,2.041-0.401c0.301,0,0.604,0.03,0.902,0.09   c0.479,0.096,0.656,0.684,0.84,1.307c0.021,0.067,0.041,0.133,0.061,0.199c0.099,0.322,0.129,0.405,0.203,0.478l0.301,0.301   l-0.414,0.102c-0.612,0.15-1.122,0.223-1.559,0.223l0,0c-1.112,0-1.687-0.463-2.378-1.119c-0.139-0.131-0.228-0.23-0.306-0.316   c-0.097-0.107-0.167-0.185-0.297-0.288l-0.396-0.313L26.741,28.88z M16.606,12.513c0.505-0.936,3.643-4.73,5.59-4.466   c1.768,0.239,1.733,3.109,2.407,5.475c0.648,2.276-2.09,4.323-2.882,5.98c-0.792,1.657,0.475,3.89-2.666,4.395   c-1.104,0.178-1.153-1.801-2.521-1.585c-0.955,0.15-1.729-1.945-1.729-3.53C14.805,17.196,16.102,13.449,16.606,12.513z    M36.118,44.519c-1.457-0.255-9.94-4.031-11.515-3.835c-0.705,0.087-1.153,0.987-1.081,2.115c0.073,1.126,0.361,1.619,1.946,2.129   c1.585,0.511,2.449,0.439,3.818,1.23c1.369,0.793,2.515,1.153,3.167,2.522c0.652,1.369,1.372,2.666,1.3,4.395   c-0.073,1.729,0.216,5.044,0.36,5.908c0.144,0.864-0.345,1.596-0.865,1.225c-0.527-0.377-5.621-3.802-9.431-3.459   c-1.104,0.1-2.961,0.217-4.114,0.505s-3.307,0.813-4.395,0.288C7.575,53.816,1.838,43.332,2.537,37.696   c0.672-5.421,3.406-3.885,6.937-4.793c3.141-0.808,5.548-2.018,6.052-2.306c0.504-0.287,1.548-0.864,2.594-0.864   c1.634,0,2.25,1.63,2.738,1.945c0.999,0.645,4.169,1.281,5.044,1.657c1.17,0.503,4.964,2.306,6.771,2.811   c0.444,0.124,2.38,0.825,2.882,0.936c0.969,0.216,4.539,3.026,5.619,3.026c-1.441,0.792-0.415,1.889,0.216,2.522   c0.152,0.327,0.151,0.655,0,0.792c-1.123,0.565-1.526,0.218-1.885,0.577C39.135,44.367,37.146,44.701,36.118,44.519z    M39.483,52.524c0.024-0.006,0.088,0.192,0.186,0.558C39.602,52.846,39.539,52.658,39.483,52.524z M71.146,62.44   c-0.33,0.3-5.216-3.864-5.809-4.354c-1.487-1.231-4.372-7.034-4.75-8.061c-0.302-0.82-2.878-4.461-4.509-4.366   c-2.56,1.439-6.089,2.584-7.263,3.081c-4.424,1.873-9.487,2.995-9.563,2.272c0.533-2.703-0.258-4.273-0.076-5.993   c2.094-0.783,3.067-1.545,3.333-1.976c0.399-0.225,0.88-0.634,1.112-0.906c0.32-0.374,0.877-1.039,0.689-1.686   c-0.217-0.745-0.975-1.065-1.839-1.857c-0.865-0.792-1.642-2.217-2.966-3.602c-0.854-0.894-1.81-2.483-2.492-3.406   c-0.571-0.772-1.518-3.149-0.941-3.438c0.577-0.288,1.26,0.48,2.255,1.583c0.875,0.97,2.878,5.038,8.172,5.187   c9.384,0.265,7.33-4.244,11.317-3.457c3.636,0.717,0.948,8.776,7.205,20.388c0.581,1.079,1.083,2.974,2.81,5.765   C69.035,59.561,71.399,62.212,71.146,62.44z M95.641,61.865c-0.367,0.277-2.989,2.262-2.845,1.829   c0.144-0.433,1.591-2.297,1.033-4.871c-0.357-1.654-1.591-3.003-2.864-3.003c-1.485,0,2.127-1.554,2.666-1.557   c0.689-0.002,3.12,0.271,4.178,2.024C99.082,58.402,96.854,60.948,95.641,61.865z"/>
	<path fill="#000000" d="M27.576,29.558c0.649,0.614,1.11,0.988,2.049,0.988l0,0c0.322,0,0.691-0.045,1.125-0.136   c-0.037-0.095-0.071-0.207-0.114-0.347c-0.021-0.068-0.041-0.136-0.062-0.204c-0.124-0.416-0.278-0.934-0.475-0.973   c-0.267-0.054-0.538-0.081-0.808-0.081c-0.76,0-1.386,0.209-1.89,0.377c-0.049,0.016-0.096,0.031-0.142,0.047   c0.013,0.013,0.024,0.026,0.037,0.04C27.369,29.348,27.452,29.44,27.576,29.558z"/>
</g>
</svg>