<?xml version="1.0" encoding="utf-8"?>
<!-- Generator: Adobe Illustrator 15.0.2, SVG Export Plug-In . SVG Version: 6.00 Build 0)  -->
<!DOCTYPE svg PUBLIC "-//W3C//DTD SVG 1.1//EN" "http://www.w3.org/Graphics/SVG/1.1/DTD/svg11.dtd">
<svg version="1.1" id="Layer_1" xmlns="http://www.w3.org/2000/svg" xmlns:xlink="http://www.w3.org/1999/xlink" x="0px" y="0px"
	 width="100px" height="100px" viewBox="0 0 100 100" enable-background="new 0 0 100 100" xml:space="preserve">
<path d="M96.973,60.174c0-0.607,0.608-0.912,0.608-1.52s-0.305-1.213-0.305-1.822c-0.304-0.605,0.305-1.215-0.606-1.82
	c-0.471-0.236-1.123-0.313-1.675-0.326c0,0.006,0.004,0.085,0.004,0.093C94.992,54.87,94.927,55,94.848,55H93.67
	c-0.19,0-0.19,0.171-0.19,0.386c0,0.232,0,0.513-0.387,0.706c-0.104,0.055-0.223,0.062-0.358,0.062c-0.229,0-0.47-0.083-0.681-0.149
	c-0.271-0.084-0.511-0.161-0.71-0.138c0.007,0.02,0.011,0.001,0.011,0.021c0,0.084-0.068,0.113-0.151,0.113h-0.301
	c-0.06,0-0.116,0.014-0.141-0.039C90.761,55.955,90.759,56,90.758,56h-0.007c-0.008,0,0.007-0.126,0.039-0.157
	c0.176-0.176,0.383-0.274,0.636-0.274c0.239,0,0.481,0.069,0.719,0.142c0.317,0.102,0.618,0.179,0.813,0.081
	c0.219-0.109,0.219-0.257,0.219-0.476c0-0.23,0-0.327,0.388-0.521c0.013-0.01,0.04,0.205,0.068,0.205h0.925
	c0.121-3-2.798-3.413-4.569-4.3c-0.304,0-0.608-0.425-0.912-0.425c-0.058-0.06-0.106-0.172-0.148-0.227
	c-0.002-0.001-0.004-0.027-0.006-0.028l-0.066-0.01C88.759,50.012,88.61,50,88.389,50h-0.223c-0.099,0-0.211-0.007-0.327-0.017
	c-0.128-0.008-0.267-0.018-0.399-0.018c-0.316,0-0.51,0.054-0.605,0.168c-0.094,0.111-0.108,0.314-0.04,0.588
	c0.01,0.038,0.003,0.086-0.022,0.124c-0.035,0.045-0.079,0.065-0.125,0.065c-0.151,0-0.333-0.016-0.521-0.034
	c-0.213-0.021-0.43-0.042-0.622-0.042c-0.244,0-0.404,0.035-0.479,0.103c-0.021,0.019-0.048,0.051-0.048,0.126
	c0,0.084-0.068,0.15-0.151,0.15c-0.084,0-0.152-0.066-0.152-0.15c0-0.142,0.052-0.263,0.149-0.351
	c0.135-0.123,0.354-0.181,0.691-0.181c0.212,0,0.439,0.022,0.641,0.041l0.083,0.008c0.077,0.008,0.152,0.015,0.224,0.02
	c-0.04-0.285,0.007-0.502,0.141-0.661c0.207-0.248,0.577-0.277,0.836-0.277c0.144,0,0.289,0.01,0.417,0.02
	c0.12,0.008,0.223,0.016,0.311,0.016c0.132,0,0.387-0.002,0.583-0.004c-0.152-0.346-0.063-0.625-0.278-1.06
	c-0.608-0.607-1.52-1.215-2.127-0.304c0.607-1.215-1.822-3.643-2.732-3.946c-1.199-0.24-2.397,0.466-2.999,1.372
	c0.024,0.006,0.047,0.017,0.065,0.032c0.06,0.067,0.06,0.158,0.007,0.217l-0.057,0.057c-0.063,0.063-0.113,0.111-0.161,0.153
	c-0.047,0.041-0.093,0.074-0.141,0.107c-0.022,0.062-0.041,0.124-0.057,0.186c0-0.05,0.095-0.099,0.089-0.146
	C80.258,46.422,80,46.488,80,46.599v0.211c0,0.083-0.255,0.19-0.338,0.19h-0.305c-0.084,0-0.152-0.087-0.152-0.171
	c0-0.525-0.233-0.769-0.758-0.769c-0.084,0-0.152-0.073-0.152-0.157c0-0.787-1.099-1.366-1.671-1.366
	c-0.027,0-0.056-0.009-0.077-0.024c-0.258-0.127-0.545-0.193-0.868-0.193c-0.35,0-0.701,0.074-1.04,0.146
	c-0.323,0.068-0.629,0.133-0.925,0.133c-0.178,0-0.334-0.023-0.479-0.072c-0.305-0.152-0.626-0.508-0.967-0.885
	c-0.405-0.45-0.861-0.957-1.307-1.175c-0.119,0.246-0.458,0.246-0.716,0.246c-0.271,0-0.385-0.184-0.485-0.344
	c-0.054-0.09-0.107-0.176-0.188-0.265c-0.145-0.005-0.289-0.023-0.408-0.038c-0.153-0.02-0.296-0.037-0.438-0.037
	c-0.328,0-0.567,0.1-0.802,0.335c-0.064,0.06-0.155,0.056-0.212,0.005c-0.06-0.066-0.06-0.158-0.008-0.216
	c0.385-0.384,0.769-0.428,1.023-0.428c0.162,0,0.321,0.02,0.474,0.038c0.144,0.02,0.294,0.038,0.437,0.038
	c0.036,0,0.071,0.013,0.1,0.036c0.135,0.136,0.213,0.26,0.275,0.36c0.101,0.165,0.135,0.211,0.232,0.211
	c0.393,0,0.456-0.036,0.456-0.152c0-0.05,0.024-0.098,0.065-0.125c0.024-0.017,0.056-0.026,0.088-0.026l0.04,0.005
	c0.574,0.191,1.118,0.794,1.599,1.326c0.33,0.365,0.633,0.698,0.857,0.812c0.096,0.03,0.219,0.048,0.36,0.048
	c0.27,0,0.571-0.064,0.862-0.127c0.354-0.075,0.717-0.15,1.102-0.15c0.362,0,0.686,0.069,0.985,0.213
	c0.632,0.022,1.81,0.285,1.928,1.192C79.143,45.467,79.456,46,79.505,46H79v0.506c0-0.061,0.289-0.15,0.344-0.174
	C79.633,46.186,80.045,46,80.151,46h-0.003c-0.171,0-0.493-0.681-0.493-1.352c-0.304-0.911,0.308-1.5-0.908-2.41
	c0.91-0.305,1.521-0.295,2.128-0.902c0.304-0.303,0.912-1.818,0.608-2.425c-0.572-1.145-2.765-0.939-4.031-0.911
	c-0.015,0.04-0.044,0.075-0.087,0.091l-0.017,0.006L77.313,38.1c-0.063,0-0.119-0.04-0.143-0.098
	c-0.016-0.048-0.033-0.082-0.054-0.109c-0.185-0.279-0.688-0.413-1.543-0.413c-0.352,0-0.701,0.022-1.012,0.041l-0.108,0.006
	c-0.217,0.012-0.403,0.022-0.563,0.022c-0.084,0-0.151-0.068-0.151-0.151c0-0.084,0.067-0.152,0.151-0.152
	c0.15,0,0.335-0.011,0.549-0.022l0.104-0.006c0.321-0.02,0.685-0.042,1.043-0.042c0.78,0,1.287,0.111,1.59,0.345
	c0.011-0.97,0.832-1.684,1.878-1.946c1.215-0.303,2.127,0,2.733-1.822c0.608-1.518-0.304-2.125,1.52-2.43
	c1.214-0.607,2.429-0.304,3.34-1.519c1.823-2.125,1.823-5.163-0.911-6.378c-0.304-0.303-0.91-0.303-1.519-0.607
	c-0.606-0.607-0.304-1.215-1.215-1.518c-1.215-0.304-2.43,0.911-3.34,1.215c-0.912-1.215-1.823-1.823-3.342-0.304
	c0.304-1.519-2.126-1.215-2.733-0.911c-1.215,0.607-2.43,1.822-3.036,2.733c-0.461,0.921-0.689,1.996-0.685,3.031
	c0.004,1.012,0.232,1.988,0.685,2.739c-2.43-0.303-1.823,2.43,0,3.038c-1.157,0-3.417-0.551-4.154,0.184
	c-0.025,0.041-0.061,0.081-0.099,0.119c0.028-0.042,0.063-0.083,0.099-0.119c0.436-0.604,0.211-1.438,0.492-2.007
	C67.195,30.412,69,30.412,69,29.501c0,0,0-0.912,0-1.215c0-0.304,0.32-0.607,0.625-1.215c0-1.215-1.057-1.519-1.057-2.43
	c0-1.215,2.357-2.43,1.751-4.252c-0.608-1.215-3.378-2.733-4.896-2.733c-1.215,0-0.929,0.607-1.537,1.518
	c-0.912,0.912-1.528,1.519-1.831,2.734c-0.304,1.215-0.309,0.911-0.916,1.822c-1.215,0.911-1.218,0.911-1.218,2.429
	c0,2.734-1.217,0.607-3.039,0.607c-1.517,0.304-1.994,1.361-2.731,2.734c0.304-0.912,0.911-2.734,0.608-3.645
	c-0.305-1.519-2.127-2.43-3.646-2.733c-1.822-0.304-2.126,1.214-2.733,2.733c-0.304,0.911-1.215,1.823-0.607,3.038
	c-0.607,0-0.734,0.303-0.734,0.911C46.736,29.197,46,28.894,46,28.589c0-0.607,0-0.911,0-1.518c0-0.912-0.784-1.519-1.999-0.912
	c-0.91,0.304-1.607,1.519-1.303,2.43c0.304,0.304,0.868,0.607,1.171,0.912c0.305,0.303,0.282,0.911,0.585,1.214
	c-0.551-0.275-1.607-0.551-1.802,0.077c0.243-1.881-0.167-1.64-1.629-1.349l-0.154,0.456c0.304,0.304,1.135,0.208,1.135,0.512
	c-2.43,0.304-2.128-2.43-1.216-3.948c0.607-0.304,1.518-1.215,1.518-1.823c0-0.911-1.215-1.822-2.126-2.125
	c-1.215-0.607-3.948-1.215-3.948,1.215c0-1.519-1.215-3.341-2.43-3.949c-1.519-0.608-2.958,1.108-2.43,3.037
	c-0.579-1.575-0.911-2.733-2.43-2.733c-1.215,0-2.43,0.607-2.733,1.823c-1.822-0.607-4.252-3.342-6.378-2.43
	c-2.988,1.197-0.683,4.157,1.419,4.54c-1.445-0.221-2.02,1.257-1.723,2.446c0,1.215,1.497,2.019,3.341,1.518
	c-1.491,0.601-0.911,1.519-0.607,2.126c0.607,1.215,1.519,1.519,2.733,1.519c1.518,0,3.645,0.303,4.556-0.912
	c-0.832,1.31,0.607,1.215,1.215,1.215c-0.607,0.304-1.518,0.304-0.911,1.519c0.303,0.303,1.518,0.607,1.821,0.607
	c-0.607,1.518-2.429,0-3.34-0.304c-1.823-0.607-3.038-0.607-4.859-0.911c-0.911,0-0.911,0-1.519-0.607
	c-0.911-0.607-1.519-1.519-2.43-2.126c-0.607-0.304-1.214-0.607-2.125-0.304c-0.909,0.304-0.909,1.215-1.517,1.519
	c-0.911,0.304-3.037-0.911-3.645-1.519c-0.911-1.822-1.519-3.037-3.645-2.43c-3.037,0.607-3.948,4.86-1.215,6.682
	c-0.911,0.303-3.34-0.607-2.733,1.518c-1.519,0-3.645,1.215-2.126,3.038c1.519,1.215,3.037,1.518,4.859,0.911
	c-0.607,0.912-0.303,1.519,0.912,1.822c-2.126,0.305-2.126,2.43-0.912,3.946c0.268,0.335,0.622,0.521,1.023,0.593
	c1.423,0.258,3.43-0.927,4.14-2.109c0.912,0.911,2.734,2.731,3.949,2.428c0.909-0.304,0.909-0.911,1.82-0.911
	c1.214,0,1.519,0.911,2.429,0.304c0.304,0.304,0.607,0.607,0.607,0.911c0.304,0.607,0,0.304,0,0.911
	c0.102,0.306,0.145,0.566,0.201,0.792c0.009,0,0.017-0.003,0.026-0.005c0.429-0.061,0.807,0.029,1.105,0.262
	c0.405,0.313,0.642,0.872,0.673,1.584c0.419-0.094,0.611-0.592,0.611-1.047c0-0.058,0.031-0.108,0.08-0.133
	c0.02-0.017,0.09-0.027,0.14-0.002c0.14,0.069,0.465,0.111,0.698,0.111c0.165,0,0.343,0.021,0.525,0.021h0.038
	c0.191,0,0.385-0.04,0.571-0.04c0.583,0,1.159,0.02,1.435,0.288c0.104,0.102,0.158,0.225,0.158,0.371
	c0,0.084-0.068,0.147-0.152,0.147s-0.152-0.07-0.152-0.154c0-0.065-0.021-0.117-0.066-0.161c-0.203-0.196-0.802-0.222-1.234-0.222
	c-0.191,0-0.387,0.006-0.576,0.011c-0.194,0.005-0.379,0.01-0.549,0.01c-0.274,0-0.474-0.014-0.622-0.044
	c-0.061,0.598-0.398,1.164-1.052,1.164c-0.083,0-0.151-0.068-0.151-0.152c0-0.694-0.185-0.633-0.546-0.915
	c-0.132-0.104-0.267-0.135-0.441-0.243c-0.83-0.396-1.207-1.128-2.236-1.643c-0.912-0.304-2.43-0.304-3.338-0.304
	c-0.304,0-1.215,0.304-1.519,0.304s-0.911-0.304-1.519-0.607c-0.912-0.304-2.125,0-3.037-0.304c-0.605-0.102-1.314-0.27-2.055-0.402
	c-1.484-0.271-3.106-0.408-4.323,0.402c-0.911,0.607-1.823,2.126-1.215,3.341c0.607,0.911,2.43,1.215,3.341,1.823
	c-2.733,2.732,0.912,2.732,2.734,3.037c-0.763,1.271,0.392,1.689,1.5,1.795c0.034-0.031,0.067-0.059,0.095-0.078
	c0.448-0.316,1.142-0.732,1.651-1.029c0.366-0.232,0.643-0.406,0.675-0.426c0.008-0.008,0.017-0.01,0.026-0.01
	c0.124,0,0.222,0.037,0.306,0.094c0.292,0.135,0.289,0.238,0.396,0.527c0.06,0.164,0.215,0.604,0.304,0.693
	c0.056,0.063,0.98-0.041,0.928,0.016c-0.072,0.066-1.036,0.234-1.092,0.184c-0.139-0.143-0.22-0.359-0.291-0.551
	c-0.133-0.357-0.239-0.86-0.477-0.886C12.745,55.147,11.749,56,11.017,56c0.003,0,0.006,0,0.009,0c-0.458,1-0.72,1.21-0.814,1.501
	c0.022,0.088,0.052,0.3,0.085,0.368c0.074,0.156,0.162,0.411,0.223,0.411l0.322,0.237c0.286,0.119,0.655-0.223,1.097-0.074
	C11.921,58.506,13.467,57,14.671,57h0.899c0.083,0,0.579,0.438,0.579,0.522s-0.473,0.302-0.557,0.302l-0.92,0.204
	c-1.188,0.168-1.719,0.347-2.625,1.257c-0.085,0.082-0.105,0.222-0.126,0.31c-0.04,0.166-0.099,0.344-0.364,0.395
	c-0.026,0.004-0.056,0.016-0.084,0.02c-0.521,0.844-1.315,1.643-1.963,2.289c-1.519,0.912-2.734,1.521-1.822,3.646
	c0.607,1.52,5.466,3.039,7.289,1.52c-0.607,2.43,0.607,2.734,2.731,2.734c0.304,0,0.304-0.305,0.911,0
	c0.303,0,0.607,0.303,0.911,0.605c1.519,0,1.519-0.91,2.43-1.518c1.215-1.215,3.645-0.303,4.555-1.518
	c0.608-0.609,1.519-3.949,1.215-4.861c0.607,2.127,3.34,1.822,4.859,3.037c1.215,1.52,1.519,3.039,4.252,2.43
	c1.215-0.303,0.607-0.91,1.519-1.518c0.607-0.912,1.215-0.303,2.43,0c1.519,0.303,4.252-1.518,3.037-3.342
	c0.484,0.35,1.215,0.912,1.519,1.824c0.304,0.605-0.304,1.82-0.304,2.43c0,1.215,0.304,1.518,1.215,2.125
	c0.58,0.289,1.714,0.854,2.344,0.109c-0.004-0.031-0.01-0.064-0.013-0.098c-0.075-0.766-0.133-1.486,0.154-1.975
	c0.318-0.539,1.26-0.771,1.26-0.658v-1.023c0-0.027,0.185-0.057,0.201-0.078l0.716-1.244c0.261-0.26,0.304-0.26,0.304-0.5
	c0-0.084,0.091-0.152,0.175-0.152c0.083,0,0.163,0.068,0.163,0.152c0,0.352,0.148,0.395-0.153,0.697L51,66.283v1.18
	c0,0.045-0.19,0.088-0.227,0.119c-0.025,0.02-0.145,0.031-0.18,0.031l-0.082-0.004c-0.576-0.164-1.032,0-1.308,0.475
	c-0.271,0.457-0.389,1.162-0.298,1.887c0.006,0.047,0.009,0.09,0.016,0.135c0.283,0.326,0.399,0.744,0.478,1.193
	c0.002,0,0.002,0.002,0.003,0.004c0.047,0.053,0.052,0.121,0.024,0.176c0.138,0.879,0.194,1.828,1.082,2.361
	c1.215,0.912,2.733,0.609,4.252,0.609c1.215,0.303,3.035,0.605,3.946,1.518c0.91,0.303,0.606,1.215,1.214,1.822
	c0.607,0.91,1.215,0.91,2.126,0.91c1.519,0,3.037-0.303,4.252-1.215c1.005-1.004,1.345-1.74,1.284-2.652
	c-0.031-0.469-0.166-0.98-0.373-1.6c-0.303-0.303-0.303-0.607-0.303-0.91c0-0.607-0.223-0.205-0.223-0.814
	c0.151-0.859,0.049-1.215-0.203-2.176c-0.218-0.83-2.278-1.924-3.22-0.959c0.494-0.709,0.954-1.049,0.851-1.59
	c-0.031-0.158-0.107-0.33-0.243-0.535c-0.607-0.607-2.431-0.305-3.037-0.91c0.304-0.912-0.606-1.474-1.215-1.474
	C59.92,62.649,60.225,63,61.135,63c0.608,0,1.519,0,2.126,0c-0.607,2,0,2.382,1.215,2.382c-0.143,0.508-0.168,0.985-0.108,1.239
	c0.189,0.813,1.235,0.692,1.931,1.386c0.608,0.91,0.608,3.069,0.911,3.979c0.304,0.91,0.607,0.927,0.607,1.837
	c-0.163,0.332-0.111,0.637-0.078,0.986c0.029,0.295,0.047,0.631-0.094,1.047c0,0.912,0.477,3.145,1.387,3.752
	c1.215,0.912,3.038,0.003,4.253,0.61c1.518,0.91,3.036,1.822,4.859,2.125c1.214,0,2.141-0.303,3.355-0.91
	c0.418-0.211,1.181-0.615,1.47-1.414C82.941,79.992,83,79.955,83,79.914v-0.303c0-0.193-0.07-0.301,0.01-0.424
	c0.025-0.039,0.019-0.078,0.062-0.121c-0.002-0.053-0.022-0.109-0.026-0.166c-0.035-0.051-0.077-0.098-0.104-0.143
	c-0.101-0.164-0.14-0.209-0.237-0.209c-0.083,0-0.153-0.068-0.153-0.152c0-0.246-0.049-0.326-0.077-0.354
	c-0.013-0.012-0.04-0.027-0.114-0.027c-0.039,0-0.083,0.006-0.129,0.01c-0.058,0.006-0.113,0.01-0.169,0.01
	c-0.098,0-0.239-0.014-0.361-0.119c-0.335-0.18-0.496-0.502-0.652-0.814c-0.101-0.199-0.194-0.387-0.321-0.527
	c-0.002,0.084-0.28,0.152-0.364,0.152S80,76.656,80,76.574v-0.301c0-0.053,0.242-0.105,0.287-0.131
	c0.027-0.021,0.199-0.031,0.249-0.008c0.35,0.174,0.573,0.521,0.727,0.826c0.153,0.307,0.311,0.564,0.566,0.693l0.052,0.025
	c0.037,0.037,0.093,0.053,0.172,0.053c0.044,0,0.093-0.006,0.141-0.01c0.055-0.006,0.111-0.012,0.164-0.012
	c0.085,0,0.211,0.012,0.317,0.109c0.1,0.09,0.155,0.232,0.171,0.443c0.17,0.053,0.256,0.191,0.339,0.326
	c0.059,0.096,0.122,0.201,0.229,0.305c0.032,0.039,0.045,0.074,0.045,0.109s-0.013,0.07-0.036,0.1
	c-0.028,0.027-0.046,0.045-0.06,0.061l-0.013,0.012c1.556,1.156,7.643,0.373,8.46-0.172c1.215-0.607,2.127-1.52,2.733-2.734
	c0.305-0.605,0.608-1.179,0.608-1.788c0-0.303-0.608-1.481-0.304-1.481c-0.608,0-0.911,0-1.52,0c1.215-3-0.304-4-2.125-4
	c-0.608,0-0.912,0-1.215,0c-0.608,0-0.608-0.161-1.215-0.466c-0.608-0.303-1.215-0.536-1.519-0.839
	c-0.608-0.305-0.305-0.571-0.608-1.181c-0.606-0.605-1.821-0.589-2.126-1.499c-0.437-0.873-0.438-1.505-0.856-2.134
	c-0.163-0.246-0.39-0.486-0.733-0.744c-1.215-0.91-2.358-0.75-3.269-1.357c-0.912-0.607,0-1.822-1.215-2.127
	c0-0.607,0-0.909-0.304-1.212c0.606,0,1.519,0,1.519,0.303c0.91,0.607,0.303,0.91,0.606,1.518c0.608,0.912,2.127,1.822,3.038,1.822
	c0.103,0.752,0.348,1.311,0.719,1.729c0.475,0.535,1.159,0.836,2.015,1.006c1.519,0.305,2.43-0.305,3.645-1.215
	c0.91,1.52,1.822,0.91,3.34,1.215c0,2.125,3.038,1.822,3.948,0.607C98.187,63.211,98.489,61.084,96.973,60.174z M35.231,54.061
	c0.287,0.34,0.338,0.424,0.338,0.424s-1.333-1.215-2.075-1.621c-0.743-0.404-1.654-0.691-1.924-0.793
	c-0.27-0.1-1.367-0.473-1.367-0.473c0.928,0.236,2.059,0.422,2.986,0.928S34.945,53.725,35.231,54.061z M31.351,39.922
	c1.08,0.371,2.294,1.148,2.294,1.148s-1.924-0.912-2.733-1.046c-0.811-0.135-2.295-0.168-2.295-0.168S30.271,39.551,31.351,39.922z
	 M27.121,44.99c-1.519-1.215-0.911-3.645,0.304-4.859c0.046-0.038,0.095-0.073,0.146-0.105l0.042,0.063
	c-0.889,0.585,0.167,2.246,0.723,3.08c0.607,0.911,2.43,1.519,3.645,1.519c1.865,0,3.015-1.611,2.484-3.047
	c0.854,0.64,0.425,2.515,0.125,3.411c-0.304,0.607-0.674,1.082-1.281,1.385C31.79,47.043,28.336,46.203,27.121,44.99z
	 M35.321,56.227c-1.822,0-3.037-0.609-4.556-1.52c-0.607-0.305-3.123-1.961-2.819-2.871c0.173-0.23,0.215-0.41,0.46-0.494
	c-0.442,0.41,0.478,1.121,1.448,1.846c0.303,0.303,0.607,0.609,1.214,0.912l0.028-0.045c0.42,0.27,0.881,0.498,1.187,0.652
	c0.804,0.402,3.072,1.07,3.984,0.771C36.099,55.834,35.881,56.223,35.321,56.227z M42.61,31.019c0-0.085,0.011-0.16,0.03-0.225
	C42.633,30.865,42.621,30.94,42.61,31.019z M45.524,39.247c0.337-0.135,1.619-0.506,3.206-0.438c1.586,0.067,3.07,1.08,3.07,1.08
	s-1.688-0.709-3.206-0.844c-1.519-0.135-3.408,0.337-3.408,0.337S45.187,39.382,45.524,39.247z M44.344,39.705l0.004,0.004
	c-0.287,0.265-0.113,0.683,0.087,1.101C44.465,40.881,44.5,41,44.529,41h0.003c0.044,0,0.109,0.026,0.204,0.026
	c0.124,0.369,0.383,0.694,0.733,0.964c1.385,1.063,4.191,1.354,5.645,0.87c1.173-0.336,1.886-1.224,1.877-2.056
	c0.194,0.65-0.424,1.884-0.662,2.362c-0.512,1.194,0.401,1.019-0.494,1.447c-0.697,0.331-3.152,0.874-4.084,0.741
	c-1.518-0.305-4.837-1.275-4.837-2.795C42.914,41.412,43.518,40.384,44.344,39.705z M52.441,54.264c0,0-1.721-1.047-3.576-1.182
	c-1.856-0.135-3.51-0.1-3.51-0.1c0.811-0.203,3.779-0.305,5.265,0.303C52.104,53.893,52.441,54.264,52.441,54.264z M53.848,58.047
	c-0.911,1.822-4.556,0.912-6.378,0.305c-1.519-0.607-4.556-2.22-4.252-4.042c0.304-0.607,0.911-1.31,1.215-1.31s0.304,0,0.607,0
	l0.016,0.132c-0.719,0.51-0.778,1.579,0.234,2.075c0.013,0.016,0.028,0.063,0.041,0.077c1.822,0.896,6.836,3.284,8.727,1.319
	c-0.006-0.08-0.009-0.151-0.021-0.229c0.043,0.049,0.06,0.211,0.031,0.24C54.101,57.091,54.028,57.598,53.848,58.047z M67.055,49
	c0.235,0,2.024-0.202,3.408,0.304s2.496,2.091,2.496,2.091s-1.519-1.518-2.767-1.957c-1.248-0.438-3.543-0.404-3.543-0.404
	S66.818,49,67.055,49z M70.854,54.402c-1.822,0.305-4.859-0.605-6.378-1.822c-0.855-0.855-0.641-3.327,0.907-3.365
	c-0.457,0.316-0.708,0.894-0.589,1.843c0.133,0.268,0.289,0.307,0.594,0.611l0.01-0.006c0.781,1.443,8.223,2.895,8.223,0.586
	C73.668,53.602,71.994,54.402,70.854,54.402z M80.855,67.02c0.643,0.236,1.452,0.811,1.452,0.811s-1.122-0.65-1.958-0.828
	c-0.835-0.176-1.722-0.387-1.722-0.387C79.54,66.648,80.215,66.783,80.855,67.02z M83.913,70.197
	c0.53-0.531,0.173-1.135-0.559-1.695c0.488,0.299,0.843,0.709,0.843,1.285c0,2.127-1.802,1.928-3.32,1.623
	c-1.52-0.303-3.038-0.91-3.948-2.125c-0.608-0.607-0.679-1.32,0-1.822l0.13-0.055l0.174-0.25c0.189-0.189,0.38-0.26,0.493-0.361
	l0.211,0.006c-0.5,0.398-0.478,1.18,0.006,1.611C78.424,69.66,82.892,71.219,83.913,70.197z"/>
</svg>
