<svg xmlns="http://www.w3.org/2000/svg" xmlns:xlink="http://www.w3.org/1999/xlink" version="1.1" id="Layer_1" x="0px" y="0px" width="100px" height="100px" viewBox="0 0 100 100" enable-background="new 0 0 100 100" xml:space="preserve">
<g id="Layer_1_1_" display="none">
</g>
<g id="Layer_3">
	<path fill="#000000" d="M61.373,79.512c0,0-5.736-41.708-3.959-41.708c5.557,0,20.092,3.818,20.064-3.833   c-0.025-7.651-6.683-15.302-27.644-15.302c-20.975,0-27.543,7.753-27.607,15.454c-0.062,7.613,15.016,3.706,20.033,3.682   c4.147-0.02-3.682,41.772-3.682,41.772S46.344,84.116,61.373,79.512z"/>
	<path fill="#000000" d="M61.186,79.648c0,0,12.918-21.533,13.744-20.871c2.584,2.078,7.916,9.283,10.762,5.716   c2.847-3.567,2.611-9.612-7.135-17.444c-9.75-7.837-15.701-6.688-18.609-3.13c-2.873,3.515,5.598,7.333,7.939,9.196   c1.936,1.541-17.32,18.046-17.32,18.046S52.477,76.174,61.186,79.648z"/>
</g>
</svg>