<?xml version="1.0" encoding="utf-8"?>
<!-- Generator: Adobe Illustrator 15.0.2, SVG Export Plug-In . SVG Version: 6.00 Build 0)  -->
<!DOCTYPE svg PUBLIC "-//W3C//DTD SVG 1.1//EN" "http://www.w3.org/Graphics/SVG/1.1/DTD/svg11.dtd">
<svg version="1.1" id="Layer_1" xmlns="http://www.w3.org/2000/svg" xmlns:xlink="http://www.w3.org/1999/xlink" x="0px" y="0px"
	 width="100px" height="100px" viewBox="0 0 100 100" enable-background="new 0 0 100 100" xml:space="preserve">
<path d="M97.27,52.007c-0.533-0.054-0.705,0.576-0.705,0.576s-2.103,1.625-2.854,2.143c-0.343,0.237-1.276,0.767-2.294,1.316
	c0.344-0.905,0.744-1.742,0.887-2.205c0.342-1.109,2.454-5.878,2.454-5.878c0.222-0.01,0.64-0.301,0.655-0.81
	c0.018-0.509-0.435-0.71-0.948-0.559c-0.516,0.153-0.435,0.802-0.435,0.802s-1.334,2.297-1.834,3.063
	c-0.502,0.764-2.576,3.395-3.581,3.974c-1.005,0.576-1.749,0.518-1.749,0.518c-0.052,0.015-0.104,0.031-0.154,0.045
	c-0.619,0.185-1.363,0.125-2.027,0.153c-0.765,0.06-1.6,0.082-2.38,0.091c-0.915-0.064-1.799-0.026-2.698-0.039
	c-0.833,0.022-1.595-0.087-2.385-0.301c-1.145-0.275-2.254-0.618-3.416-0.945c-0.606-0.156-1.177-0.38-1.781-0.536
	c-0.695-0.074-1.285-0.179-1.963-0.201c-0.746-0.059-1.461-0.015-2.155-0.089c-0.745-0.06-1.388-0.148-2.075-0.393
	c-0.689-0.243-1.35-0.774-1.914-1.168c-0.416-0.269-0.883-0.521-1.232-0.755c-0.014-0.05-0.014-0.05-0.065-0.035l-0.017-0.051
	l-0.065-0.031c-1.009,2.119-2.948,4.614-6.806,7.443C48.56,63.396,42.62,63.758,41,63.959c-1.272,0.156-3.526-0.086-4.562-0.348
	c0.029-0.039,0.057-0.077,0.085-0.116c0.072-0.102,0.145-0.203,0.212-0.305c0.879,0.17,1.958,0.165,1.958,0.165
	c4.315-0.553,10.632-3.603,13.058-5.048c2.428-1.448,5.168-3.717,9.673-8.916c4.504-5.199-0.449-6.235-0.449-6.235
	s-2.649-4.967-7.606-9.081c-4.958-4.114-7.859-4.555-14.832-5.552c-6.972-0.997-13.588,1.468-18.285,6.724
	c-2.573,2.881-4.507,5.959-5.557,9.41c-0.359,0.405-2.361,0.129-2.702,0.024c-0.607-0.156-1.17-0.549-1.673-0.736
	c-0.473-0.084-1.254-0.076-1.8-0.026c-1.09,0.1-2.191,0.538-3.25,0.741C4.211,44.864,3.182,45.168,2,44.959
	c0.449,0.763,1.25,1.197,1.773,1.826c0.327,0.351,0.521,0.628,0.747,1.009c0.226,0.382,0.214,0.722,0.407,0.999
	c0.858,1.761,3.149,2.313,4.576,3.346c0.831,0.538,1.795,1.146,2.378,1.982c0.451,0.762,0.768,1.452,1.187,2.11
	c0.451,0.764,0.797,1.556,1.29,2.082c0.269,0.224,0.876,0.809,1.163,0.947c1.873,4.113,4.724,6.188,5.376,6.616
	c0.688,0.447,6.49,3.229,11.559,0.99c0.53,0.252,1.903-0.155,2.274-0.265c0.855-0.142,1.75-0.52,2.531-0.528
	c0.987-0.067,1.739-0.179,2.54,0.257c0.257,0.14,0.418,0.306,0.613,0.264c0.079,0.135,0.148,0.288,0.224,0.404
	c0.402,0.61,0.66,0.941,1.414,1.083c0.599,0.113,1.308,0.063,1.95,0.063c0.694,0,1.282,0.037,1.931,0.166
	c0.717,0.142,1.369,0.246,2.015,0.619c0.489,0.283,0.837,0.642,1.266,1.005c0.245,0.208,0.41,0.362,0.607,0.604
	c0.198,0.246,0.439,0.301,0.708,0.425c0.536,0.249,1.04,0.502,1.61,0.643c0.605,0.147,1.299,0.074,1.928,0.001
	c1.133-0.13,2.088-0.779,3.156-1.096c0.564-0.168,1.132-0.335,1.789-0.195c0.605,0.156,1.212,0.313,1.803,0.417
	c1.203,0.092,2.364,0.419,3.546,0.628c0.643,0.09,1.351,0.216,2.028,0.238c0.664-0.029,1.322,0.111,1.955-0.02
	c0.545-0.05,1.074-0.151,1.635-0.149c0.324-0.04,0.648-0.08,0.921-0.104c0.323-0.04,0.632-0.132,0.921-0.104
	c0.184-0.009,1.523-0.203,1.963-0.366l0.002,0.007c0.926-0.275,1.889-0.616,2.845-0.789c0.53-0.1,1.06-0.201,1.604-0.251
	c0.596-0.064,1.173-0.012,1.764,0.093c0.575,0.054,1.188,0.039,1.814,0.078c0.561,0.001,1.121,0.003,1.666-0.047
	c1.055-0.032,2.086,0.053,3.162-0.099c1.021-0.135,2.104-0.455,3.004-1.003c0.434-0.24,0.866-0.48,1.268-0.823
	c0.176-0.164,0.367-0.276,0.609-0.405c0.065-0.035,0.131-0.062,0.195-0.085c0.158,0.112,0.29,0.219,0.374,0.309
	c0.329,0.352,0.466,0.813,0.702,0.855c0.234,0.041,0.713-0.044,0.74-0.332S93.326,67.865,93,67.514
	c-0.119-0.125-0.268-0.33-0.422-0.561c0.281-0.356,0.444-0.773,0.551-1.269c0.094-0.251,0.171-0.555,0.264-0.807
	c0.063-0.354,0.193-0.673,0.256-1.027c0.089-0.376-0.021-0.963-0.204-1.355c0.24-0.033,0.53-0.01,0.846-0.066
	c0.478-0.085,1.286-0.381,1.263-0.653c-0.026-0.271-0.617-0.378-0.955-0.39c-0.34-0.011-2.436-0.846-3.449-2
	c-0.012-0.013-0.021-0.023-0.029-0.037c0.582-0.601,1.144-1.122,1.412-1.448c0.736-0.899,4.494-4.518,4.494-4.518
	c0.207,0.076,0.705-0.036,0.913-0.502C98.146,52.417,97.805,52.058,97.27,52.007z M24.806,42.674
	c-0.813,0.441-1.545,1.066-2.169,1.861c-1.04,1.327-1.781,3.127-2.104,5.339c-0.519,3.54,1.378,5.542,2.865,6.26
	c0.219,0.104,0.493,0.188,0.81,0.242c1.658,0.273,4.45-0.292,6.112-2.854c1.979-3.051,0.277-6.189-2.098-7.076
	c-1.674-0.627-3.933,0.803-4.597,1.587c-0.662,0.784-1.053,1.824-0.472,3.218c0.581,1.396,2.518,1.886,3.982,0.499
	c1.465-1.386,0.32-2.979-0.444-3.479c-0.763-0.501-1.95-0.274-2.556,0.591c-0.723,1.037-0.193,1.879,0.062,2.133
	c0.523,0.523,1.493,0.596,1.995,0.027c0.504-0.57,0.058-1.396-0.344-1.557c-0.382-0.153-0.805-0.041-0.969,0.24
	c-0.087,0.148-0.074,0.412,0.05,0.544c0.109,0.118,0.351,0.084,0.402,0.076l0.005,0.038c-0.127,0.087-0.374,0.195-0.644-0.016
	c-0.256-0.2-0.158-0.638-0.064-0.779c0.254-0.385,0.947-0.563,1.313-0.388c0.979,0.465,0.927,1.449,0.43,2.013
	c-0.499,0.563-1.642,0.598-2.293,0.084c-0.496-0.392-0.916-1.586-0.201-2.577c1.047-1.449,2.768-1.114,3.699-0.383
	c0.711,0.56,1.386,2.695-0.723,4.077c-1.671,1.095-3.555,0.467-4.206-1.439c-0.483-1.417,0.38-2.805,1.037-3.583
	c0.657-0.778,2.837-2.327,5.172-1.535c2.388,0.81,4.418,4.983,2.457,8.004c-1.644,2.536-4.676,3.584-7.205,2.988
	c-0.485-0.112-0.95-0.288-1.385-0.523c-1.438-0.78-3.245-3.156-2.731-6.664c0.304-2.082,1.113-3.962,2.301-5.44
	c0.811-1.01,1.801-1.834,2.929-2.407c2.178-1.109,7.485-2.1,10.448,0.921c3.249,3.313,6.784,11.945,1.844,19.217
	c3.866-7.063,0.467-15.037-2.593-18.201C31.762,40.47,26.977,41.499,24.806,42.674z"/>
</svg>
