<?xml version="1.0" encoding="UTF-8" standalone="yes"?>
<!DOCTYPE svg PUBLIC "-//W3C//DTD SVG 1.0//EN" "http://www.w3.org/TR/2001/REC-SVG-20010904/DTD/svg10.dtd">
<svg height="397" onload="init(evt)" width="700" xmlns="http://www.w3.org/2000/svg" xmlns:svg="http://www.w3.org/2000/svg" xmlns:xlink="http://www.w3.org/1999/xlink">
	<g id="demis background" opacity="0.5" transform="translate(0,0)">
		<image height="397" id="background map 1" opacity="1" width="700" x="0" xlink:href="http://www2.demis.nl/wms/wms.asp?version=1.1.0&amp;wms=WorldMap&amp;request=GetMap&amp;srs=EPSG:4326&amp;bbox=-70.5862446,-33.3515456,-70.5684140,-33.3430493&amp;WIDTH=700&amp;HEIGHT=397&amp;format=PNG&amp;transparent=FALSE&amp;exceptions=INIMAGE&amp;wrapdateline=TRUE&amp;layers=Bathymetry,Countries,Topography,Builtup+areas,Coastlines,Waterbodies,Rivers,Streams,Highways,Roads,Railroads,Trails,Hillshading,Borders,Settlements,Cities,Airports" y="0" />
	</g>
	<g id="Manquehue x cara norte (t1) track" opacity="1.00">
		<line fill="none" id="t1 p1" stroke="#cc8d00" stroke-width="3" x1="660.0000" x2="660.0000" y1="40.0000" y2="40.0000" />
		<line fill="none" id="t1 p2" stroke="#cc4800" stroke-width="3" x1="660.0000" x2="656.3647" y1="40.0000" y2="45.4513" />
		<line fill="none" id="t1 p3" stroke="#cc1400" stroke-width="3" x1="656.3647" x2="656.6159" y1="45.4513" y2="45.8113" />
		<line fill="none" id="t1 p4" stroke="#cc0000" stroke-width="3" x1="656.6159" x2="656.3922" y1="45.8113" y2="50.4305" />
		<line fill="none" id="t1 p5" stroke="#cc0000" stroke-width="3" x1="656.3922" x2="654.1191" y1="50.4305" y2="54.5260" />
		<line fill="none" id="t1 p6" stroke="#cc0600" stroke-width="3" x1="654.1191" x2="651.7361" y1="54.5260" y2="58.0885" />
		<line fill="none" id="t1 p7" stroke="#cc0a00" stroke-width="3" x1="651.7361" x2="648.8271" y1="58.0885" y2="62.5534" />
		<line fill="none" id="t1 p8" stroke="#cc0e00" stroke-width="3" x1="648.8271" x2="646.2360" y1="62.5534" y2="65.9569" />
		<line fill="none" id="t1 p9" stroke="#cc1200" stroke-width="3" x1="646.2360" x2="643.9041" y1="65.9569" y2="69.9683" />
		<line fill="none" id="t1 p10" stroke="#cc1600" stroke-width="3" x1="643.9041" x2="644.0689" y1="69.9683" y2="74.5687" />
		<line fill="none" id="t1 p11" stroke="#cc1b00" stroke-width="3" x1="644.0689" x2="645.3998" y1="74.5687" y2="78.5988" />
		<line fill="none" id="t1 p12" stroke="#cc1f00" stroke-width="3" x1="645.3998" x2="646.9976" y1="78.5988" y2="82.7738" />
		<line fill="none" id="t1 p13" stroke="#cc2100" stroke-width="3" x1="646.9976" x2="648.3874" y1="82.7738" y2="86.8926" />
		<line fill="none" id="t1 p14" stroke="#cc2500" stroke-width="3" x1="648.3874" x2="650.3385" y1="86.8926" y2="91.0022" />
		<line fill="none" id="t1 p15" stroke="#cc2700" stroke-width="3" x1="650.3385" x2="651.0726" y1="91.0022" y2="95.3034" />
		<line fill="none" id="t1 p16" stroke="#cc2900" stroke-width="3" x1="651.0726" x2="651.5280" y1="95.3034" y2="99.8384" />
		<line fill="none" id="t1 p17" stroke="#cc2900" stroke-width="3" x1="651.5280" x2="651.0177" y1="99.8384" y2="104.2144" />
		<line fill="none" id="t1 p18" stroke="#cc2b00" stroke-width="3" x1="651.0177" x2="650.0912" y1="104.2144" y2="108.5203" />
		<line fill="none" id="t1 p19" stroke="#cc2b00" stroke-width="3" x1="650.0912" x2="647.0958" y1="108.5203" y2="111.5405" />
		<line fill="none" id="t1 p20" stroke="#cc2d00" stroke-width="3" x1="647.0958" x2="643.2956" y1="111.5405" y2="113.5088" />
		<line fill="none" id="t1 p21" stroke="#cc2f00" stroke-width="3" x1="643.2956" x2="640.9675" y1="113.5088" y2="117.1321" />
		<line fill="none" id="t1 p22" stroke="#cc3100" stroke-width="3" x1="640.9675" x2="639.1656" y1="117.1321" y2="121.0453" />
		<line fill="none" id="t1 p23" stroke="#cc3300" stroke-width="3" x1="639.1656" x2="636.0013" y1="121.0453" y2="124.3413" />
		<line fill="none" id="t1 p24" stroke="#cc3500" stroke-width="3" x1="636.0013" x2="633.0452" y1="124.3413" y2="127.7215" />
		<line fill="none" id="t1 p25" stroke="#cc3500" stroke-width="3" x1="633.0452" x2="630.3952" y1="127.7215" y2="131.6394" />
		<line fill="none" id="t1 p26" stroke="#cc3700" stroke-width="3" x1="630.3952" x2="627.9416" y1="131.6394" y2="135.4543" />
		<line fill="none" id="t1 p27" stroke="#cc3700" stroke-width="3" x1="627.9416" x2="625.4958" y1="135.4543" y2="138.9000" />
		<line fill="none" id="t1 p28" stroke="#cc3500" stroke-width="3" x1="625.4958" x2="622.7595" y1="138.9000" y2="142.3550" />
		<line fill="none" id="t1 p29" stroke="#cc3500" stroke-width="3" x1="622.7595" x2="620.3019" y1="142.3550" y2="145.7773" />
		<line fill="none" id="t1 p30" stroke="#cc3500" stroke-width="3" x1="620.3019" x2="616.9100" y1="145.7773" y2="148.3580" />
		<line fill="none" id="t1 p31" stroke="#cc3900" stroke-width="3" x1="616.9100" x2="612.5837" y1="148.3580" y2="149.7466" />
		<line fill="none" id="t1 p32" stroke="#cc3b00" stroke-width="3" x1="612.5837" x2="608.3320" y1="149.7466" y2="150.2234" />
		<line fill="none" id="t1 p33" stroke="#cc3d00" stroke-width="3" x1="608.3320" x2="604.7045" y1="150.2234" y2="147.3575" />
		<line fill="none" id="t1 p34" stroke="#cc4100" stroke-width="3" x1="604.7045" x2="603.1578" y1="147.3575" y2="143.3508" />
		<line fill="none" id="t1 p35" stroke="#cc4500" stroke-width="3" x1="603.1578" x2="601.2380" y1="143.3508" y2="139.3161" />
		<line fill="none" id="t1 p36" stroke="#cc4c00" stroke-width="3" x1="601.2380" x2="598.7137" y1="139.3161" y2="135.6040" />
		<line fill="none" id="t1 p37" stroke="#cc5000" stroke-width="3" x1="598.7137" x2="594.2618" y1="135.6040" y2="135.6507" />
		<line fill="none" id="t1 p38" stroke="#cc5400" stroke-width="3" x1="594.2618" x2="591.7336" y1="135.6507" y2="139.4236" />
		<line fill="none" id="t1 p39" stroke="#cc5800" stroke-width="3" x1="591.7336" x2="589.8806" y1="139.4236" y2="143.2012" />
		<line fill="none" id="t1 p40" stroke="#cc5c00" stroke-width="3" x1="589.8806" x2="585.7820" y1="143.2012" y2="144.2531" />
		<line fill="none" id="t1 p41" stroke="#cc5e00" stroke-width="3" x1="585.7820" x2="584.6631" y1="144.2531" y2="140.0969" />
		<line fill="none" id="t1 p42" stroke="#cc5e00" stroke-width="3" x1="584.6631" x2="582.5628" y1="140.0969" y2="136.3754" />
		<line fill="none" id="t1 p43" stroke="#cc6000" stroke-width="3" x1="582.5628" x2="579.6263" y1="136.3754" y2="133.0700" />
		<line fill="none" id="t1 p44" stroke="#cc6400" stroke-width="3" x1="579.6263" x2="576.0381" y1="133.0700" y2="130.0451" />
		<line fill="none" id="t1 p45" stroke="#cc6600" stroke-width="3" x1="576.0381" x2="573.3135" y1="130.0451" y2="126.5667" />
		<line fill="none" id="t1 p46" stroke="#cc6c00" stroke-width="3" x1="573.3135" x2="570.8167" y1="126.5667" y2="123.1070" />
		<line fill="none" id="t1 p47" stroke="#cc7000" stroke-width="3" x1="570.8167" x2="568.8734" y1="123.1070" y2="119.3435" />
		<line fill="none" id="t1 p48" stroke="#cc7200" stroke-width="3" x1="568.8734" x2="567.0361" y1="119.3435" y2="115.4069" />
		<line fill="none" id="t1 p49" stroke="#cc7700" stroke-width="3" x1="567.0361" x2="565.0104" y1="115.4069" y2="111.1431" />
		<line fill="none" id="t1 p50" stroke="#cc7b00" stroke-width="3" x1="565.0104" x2="562.8983" y1="111.1431" y2="107.2159" />
		<line fill="none" id="t1 p51" stroke="#cc7d00" stroke-width="3" x1="562.8983" x2="560.9197" y1="107.2159" y2="103.3962" />
		<line fill="none" id="t1 p52" stroke="#cc8100" stroke-width="3" x1="560.9197" x2="559.2001" y1="103.3962" y2="99.0529" />
		<line fill="none" id="t1 p53" stroke="#cc8500" stroke-width="3" x1="559.2001" x2="555.4117" y1="99.0529" y2="97.1174" />
		<line fill="none" id="t1 p54" stroke="#cc8900" stroke-width="3" x1="555.4117" x2="551.1875" y1="97.1174" y2="95.2707" />
		<line fill="none" id="t1 p55" stroke="#cc8900" stroke-width="3" x1="551.1875" x2="547.6189" y1="95.2707" y2="92.6946" />
		<line fill="none" id="t1 p56" stroke="#cc8b00" stroke-width="3" x1="547.6189" x2="544.5725" y1="92.6946" y2="89.7445" />
		<line fill="none" id="t1 p57" stroke="#cc8d00" stroke-width="3" x1="544.5725" x2="541.2669" y1="89.7445" y2="86.9534" />
		<line fill="none" id="t1 p58" stroke="#cc8f00" stroke-width="3" x1="541.2669" x2="538.1380" y1="86.9534" y2="83.6106" />
		<line fill="none" id="t1 p59" stroke="#cc9100" stroke-width="3" x1="538.1380" x2="534.5851" y1="83.6106" y2="80.7400" />
		<line fill="none" id="t1 p60" stroke="#cc9300" stroke-width="3" x1="534.5851" x2="530.7888" y1="80.7400" y2="78.3089" />
		<line fill="none" id="t1 p61" stroke="#cc9500" stroke-width="3" x1="530.7888" x2="526.4586" y1="78.3089" y2="76.8175" />
		<line fill="none" id="t1 p62" stroke="#cc9900" stroke-width="3" x1="526.4586" x2="522.2030" y1="76.8175" y2="74.9240" />
		<line fill="none" id="t1 p63" stroke="#cc9b00" stroke-width="3" x1="522.2030" x2="517.8296" y1="74.9240" y2="73.7552" />
		<line fill="none" id="t1 p64" stroke="#cc9d00" stroke-width="3" x1="517.8296" x2="514.3710" y1="73.7552" y2="71.1044" />
		<line fill="none" id="t1 p65" stroke="#cc9f00" stroke-width="3" x1="514.3710" x2="510.3274" y1="71.1044" y2="69.4213" />
		<line fill="none" id="t1 p66" stroke="#cca400" stroke-width="3" x1="510.3274" x2="505.7852" y1="69.4213" y2="68.4675" />
		<line fill="none" id="t1 p67" stroke="#ccac00" stroke-width="3" x1="505.7852" x2="501.2665" y1="68.4675" y2="68.1730" />
		<line fill="none" id="t1 p68" stroke="#ccb400" stroke-width="3" x1="501.2665" x2="497.0070" y1="68.1730" y2="67.9439" />
		<line fill="none" id="t1 p69" stroke="#ccb800" stroke-width="3" x1="497.0070" x2="492.4883" y1="67.9439" y2="67.7475" />
		<line fill="none" id="t1 p70" stroke="#ccba00" stroke-width="3" x1="492.4883" x2="491.8524" y1="67.7475" y2="72.0020" />
		<line fill="none" id="t1 p71" stroke="#ccbc00" stroke-width="3" x1="491.8524" x2="495.8803" y1="72.0020" y2="74.1059" />
		<line fill="none" id="t1 p72" stroke="#ccbe00" stroke-width="3" x1="495.8803" x2="499.4489" y1="74.1059" y2="76.3593" />
		<line fill="none" id="t1 p73" stroke="#ccc000" stroke-width="3" x1="499.4489" x2="502.8055" y1="76.3593" y2="79.4310" />
		<line fill="none" id="t1 p74" stroke="#ccc200" stroke-width="3" x1="502.8055" x2="505.3141" y1="79.4310" y2="83.0636" />
		<line fill="none" id="t1 p75" stroke="#ccc400" stroke-width="3" x1="505.3141" x2="506.3544" y1="83.0636" y2="87.5425" />
		<line fill="none" id="t1 p76" stroke="#ccc600" stroke-width="3" x1="506.3544" x2="505.3180" y1="87.5425" y2="91.7175" />
		<line fill="none" id="t1 p77" stroke="#ccc600" stroke-width="3" x1="505.3180" x2="501.2587" y1="91.7175" y2="93.2884" />
		<line fill="none" id="t1 p78" stroke="#ccc800" stroke-width="3" x1="501.2587" x2="497.2151" y1="93.2884" y2="91.9559" />
		<line fill="none" id="t1 p79" stroke="#ccc800" stroke-width="3" x1="497.2151" x2="492.6415" y1="91.9559" y2="91.3762" />
		<line fill="none" id="t1 p80" stroke="#ccca00" stroke-width="3" x1="492.6415" x2="488.0993" y1="91.3762" y2="91.5959" />
		<line fill="none" id="t1 p81" stroke="#cccc00" stroke-width="3" x1="488.0993" x2="483.6160" y1="91.5959" y2="91.3107" />
		<line fill="none" id="t1 p82" stroke="#c8cc00" stroke-width="3" x1="483.6160" x2="479.3368" y1="91.3107" y2="91.2079" />
		<line fill="none" id="t1 p83" stroke="#c3cc00" stroke-width="3" x1="479.3368" x2="475.0419" y1="91.2079" y2="91.0256" />
		<line fill="none" id="t1 p84" stroke="#bfcc00" stroke-width="3" x1="475.0419" x2="470.6646" y1="91.0256" y2="91.9653" />
		<line fill="none" id="t1 p85" stroke="#bbcc00" stroke-width="3" x1="470.6646" x2="466.7780" y1="91.9653" y2="93.8026" />
		<line fill="none" id="t1 p86" stroke="#b7cc00" stroke-width="3" x1="466.7780" x2="462.1259" y1="93.8026" y2="93.5923" />
		<line fill="none" id="t1 p87" stroke="#b1cc00" stroke-width="3" x1="462.1259" x2="457.4856" y1="93.5923" y2="94.2141" />
		<line fill="none" id="t1 p88" stroke="#afcc00" stroke-width="3" x1="457.4856" x2="453.1789" y1="94.2141" y2="93.9803" />
		<line fill="none" id="t1 p89" stroke="#abcc00" stroke-width="3" x1="453.1789" x2="448.7663" y1="93.9803" y2="93.5876" />
		<line fill="none" id="t1 p90" stroke="#a9cc00" stroke-width="3" x1="448.7663" x2="444.2123" y1="93.5876" y2="94.1580" />
		<line fill="none" id="t1 p91" stroke="#a5cc00" stroke-width="3" x1="444.2123" x2="439.9096" y1="94.1580" y2="93.0219" />
		<line fill="none" id="t1 p92" stroke="#9fcc00" stroke-width="3" x1="439.9096" x2="435.6069" y1="93.0219" y2="91.5632" />
		<line fill="none" id="t1 p93" stroke="#9bcc00" stroke-width="3" x1="435.6069" x2="432.2110" y1="91.5632" y2="88.6318" />
		<line fill="none" id="t1 p94" stroke="#96cc00" stroke-width="3" x1="432.2110" x2="429.6828" y1="88.6318" y2="85.2329" />
		<line fill="none" id="t1 p95" stroke="#92cc00" stroke-width="3" x1="429.6828" x2="425.8826" y1="85.2329" y2="82.5073" />
		<line fill="none" id="t1 p96" stroke="#90cc00" stroke-width="3" x1="425.8826" x2="422.2276" y1="82.5073" y2="79.8377" />
		<line fill="none" id="t1 p97" stroke="#8ccc00" stroke-width="3" x1="422.2276" x2="418.3489" y1="79.8377" y2="77.7385" />
		<line fill="none" id="t1 p98" stroke="#88cc00" stroke-width="3" x1="418.3489" x2="413.8616" y1="77.7385" y2="75.8778" />
		<line fill="none" id="t1 p99" stroke="#86cc00" stroke-width="3" x1="413.8616" x2="409.7474" y1="75.8778" y2="74.7323" />
		<line fill="none" id="t1 p100" stroke="#84cc00" stroke-width="3" x1="409.7474" x2="405.0324" y1="74.7323" y2="74.7931" />
		<line fill="none" id="t1 p101" stroke="#82cc00" stroke-width="3" x1="405.0324" x2="400.5138" y1="74.7931" y2="75.0643" />
		<line fill="none" id="t1 p102" stroke="#80cc00" stroke-width="3" x1="400.5138" x2="396.3681" y1="75.0643" y2="75.9853" />
		<line fill="none" id="t1 p103" stroke="#80cc00" stroke-width="3" x1="396.3681" x2="394.0047" y1="75.9853" y2="79.6320" />
		<line fill="none" id="t1 p104" stroke="#80cc00" stroke-width="3" x1="394.0047" x2="391.6571" y1="79.6320" y2="83.1758" />
		<line fill="none" id="t1 p105" stroke="#80cc00" stroke-width="3" x1="391.6571" x2="392.3088" y1="83.1758" y2="87.3602" />
		<line fill="none" id="t1 p106" stroke="#80cc00" stroke-width="3" x1="392.3088" x2="388.4968" y1="87.3602" y2="89.5108" />
		<line fill="none" id="t1 p107" stroke="#7ecc00" stroke-width="3" x1="388.4968" x2="388.3947" y1="89.5108" y2="93.9055" />
		<line fill="none" id="t1 p108" stroke="#7ccc00" stroke-width="3" x1="388.3947" x2="385.8822" y1="93.9055" y2="97.3231" />
		<line fill="none" id="t1 p109" stroke="#76cc00" stroke-width="3" x1="385.8822" x2="384.1470" y1="97.3231" y2="101.5074" />
		<line fill="none" id="t1 p110" stroke="#6ecc00" stroke-width="3" x1="384.1470" x2="381.7483" y1="101.5074" y2="105.0840" />
		<line fill="none" id="t1 p111" stroke="#63cc00" stroke-width="3" x1="381.7483" x2="380.4684" y1="105.0840" y2="109.3151" />
		<line fill="none" id="t1 p112" stroke="#5dcc00" stroke-width="3" x1="380.4684" x2="378.8588" y1="109.3151" y2="113.4340" />
		<line fill="none" id="t1 p113" stroke="#59cc00" stroke-width="3" x1="378.8588" x2="379.0944" y1="113.4340" y2="117.7539" />
		<line fill="none" id="t1 p114" stroke="#55cc00" stroke-width="3" x1="379.0944" x2="377.7007" y1="117.7539" y2="122.2421" />
		<line fill="none" id="t1 p115" stroke="#4fcc00" stroke-width="3" x1="377.7007" x2="377.0647" y1="122.2421" y2="126.4311" />
		<line fill="none" id="t1 p116" stroke="#47cc00" stroke-width="3" x1="377.0647" x2="376.2756" y1="126.4311" y2="130.7557" />
		<line fill="none" id="t1 p117" stroke="#41cc00" stroke-width="3" x1="376.2756" x2="375.0115" y1="130.7557" y2="135.1084" />
		<line fill="none" id="t1 p118" stroke="#3dcc00" stroke-width="3" x1="375.0115" x2="371.3252" y1="135.1084" y2="137.9790" />
		<line fill="none" id="t1 p119" stroke="#38cc00" stroke-width="3" x1="371.3252" x2="369.6017" y1="137.9790" y2="141.9950" />
		<line fill="none" id="t1 p120" stroke="#34cc00" stroke-width="3" x1="369.6017" x2="369.6645" y1="141.9950" y2="146.4599" />
		<line fill="none" id="t1 p121" stroke="#30cc00" stroke-width="3" x1="369.6645" x2="368.6163" y1="146.4599" y2="150.5367" />
		<line fill="none" id="t1 p122" stroke="#2ccc00" stroke-width="3" x1="368.6163" x2="366.2451" y1="150.5367" y2="154.5527" />
		<line fill="none" id="t1 p123" stroke="#28cc00" stroke-width="3" x1="366.2451" x2="361.8443" y1="154.5527" y2="155.0155" />
		<line fill="none" id="t1 p124" stroke="#26cc00" stroke-width="3" x1="361.8443" x2="357.5298" y1="155.0155" y2="154.6275" />
		<line fill="none" id="t1 p125" stroke="#20cc00" stroke-width="3" x1="357.5298" x2="353.1839" y1="154.6275" y2="154.5854" />
		<line fill="none" id="t1 p126" stroke="#1ccc00" stroke-width="3" x1="353.1839" x2="348.6456" y1="154.5854" y2="155.0483" />
		<line fill="none" id="t1 p127" stroke="#18cc00" stroke-width="3" x1="348.6456" x2="347.3422" y1="155.0483" y2="159.1204" />
		<line fill="none" id="t1 p128" stroke="#12cc00" stroke-width="3" x1="347.3422" x2="342.9885" y1="159.1204" y2="159.4336" />
		<line fill="none" id="t1 p129" stroke="#0bcc00" stroke-width="3" x1="342.9885" x2="339.7182" y1="159.4336" y2="156.5537" />
		<line fill="none" id="t1 p130" stroke="#05cc00" stroke-width="3" x1="339.7182" x2="335.3291" y1="156.5537" y2="156.0581" />
		<line fill="none" id="t1 p131" stroke="#00cc01" stroke-width="3" x1="335.3291" x2="331.2777" y1="156.0581" y2="153.9122" />
		<line fill="none" id="t1 p132" stroke="#00cc07" stroke-width="3" x1="331.2777" x2="328.4982" y1="153.9122" y2="157.3251" />
		<line fill="none" id="t1 p133" stroke="#00cc11" stroke-width="3" x1="328.4982" x2="328.4982" y1="157.3251" y2="157.3251" />
		<line fill="none" id="t1 p134" stroke="#00cc19" stroke-width="3" x1="328.4982" x2="328.4982" y1="157.3251" y2="157.3251" />
		<line fill="none" id="t1 p135" stroke="#00cc1f" stroke-width="3" x1="328.4982" x2="328.4982" y1="157.3251" y2="157.3251" />
		<line fill="none" id="t1 p136" stroke="#00cc1f" stroke-width="3" x1="328.4982" x2="324.9649" y1="157.3251" y2="160.1443" />
		<line fill="none" id="t1 p137" stroke="#00cc1f" stroke-width="3" x1="324.9649" x2="323.6615" y1="160.1443" y2="164.1930" />
		<line fill="none" id="t1 p138" stroke="#00cc1f" stroke-width="3" x1="323.6615" x2="325.7305" y1="164.1930" y2="168.4101" />
		<line fill="none" id="t1 p139" stroke="#00cc1f" stroke-width="3" x1="325.7305" x2="322.5662" y1="168.4101" y2="171.1965" />
		<line fill="none" id="t1 p140" stroke="#00cc22" stroke-width="3" x1="322.5662" x2="318.9702" y1="171.1965" y2="173.7399" />
		<line fill="none" id="t1 p141" stroke="#00cc2a" stroke-width="3" x1="318.9702" x2="314.3887" y1="173.7399" y2="173.6697" />
		<line fill="none" id="t1 p142" stroke="#00cc32" stroke-width="3" x1="314.3887" x2="309.9211" y1="173.6697" y2="174.1887" />
		<line fill="none" id="t1 p143" stroke="#00cc3c" stroke-width="3" x1="309.9211" x2="305.4456" y1="174.1887" y2="175.1424" />
		<line fill="none" id="t1 p144" stroke="#00cc44" stroke-width="3" x1="305.4456" x2="300.6483" y1="175.1424" y2="175.6661" />
		<line fill="none" id="t1 p145" stroke="#00cc4c" stroke-width="3" x1="300.6483" x2="296.3377" y1="175.6661" y2="176.2692" />
		<line fill="none" id="t1 p146" stroke="#00cc51" stroke-width="3" x1="296.3377" x2="291.5521" y1="176.2692" y2="177.4847" />
		<line fill="none" id="t1 p147" stroke="#00cc53" stroke-width="3" x1="291.5521" x2="287.3397" y1="177.4847" y2="178.4151" />
		<line fill="none" id="t1 p148" stroke="#00cc55" stroke-width="3" x1="287.3397" x2="282.5816" y1="178.4151" y2="179.1351" />
		<line fill="none" id="t1 p149" stroke="#00cc55" stroke-width="3" x1="282.5816" x2="278.2553" y1="179.1351" y2="179.2099" />
		<line fill="none" id="t1 p150" stroke="#00cc57" stroke-width="3" x1="278.2553" x2="273.8897" y1="179.2099" y2="179.7756" />
		<line fill="none" id="t1 p151" stroke="#00cc59" stroke-width="3" x1="273.8897" x2="269.6891" y1="179.7756" y2="180.4255" />
		<line fill="none" id="t1 p152" stroke="#00cc5b" stroke-width="3" x1="269.6891" x2="265.0173" y1="180.4255" y2="180.4862" />
		<line fill="none" id="t1 p153" stroke="#00cc5d" stroke-width="3" x1="265.0173" x2="260.8128" y1="180.4862" y2="181.5335" />
		<line fill="none" id="t1 p154" stroke="#00cc61" stroke-width="3" x1="260.8128" x2="256.1057" y1="181.5335" y2="182.0945" />
		<line fill="none" id="t1 p155" stroke="#00cc63" stroke-width="3" x1="256.1057" x2="252.4390" y1="182.0945" y2="184.3480" />
		<line fill="none" id="t1 p156" stroke="#00cc65" stroke-width="3" x1="252.4390" x2="248.2265" y1="184.3480" y2="184.9885" />
		<line fill="none" id="t1 p157" stroke="#00cc67" stroke-width="3" x1="248.2265" x2="243.8296" y1="184.9885" y2="183.5766" />
		<line fill="none" id="t1 p158" stroke="#00cc67" stroke-width="3" x1="243.8296" x2="239.3267" y1="183.5766" y2="182.5340" />
		<line fill="none" id="t1 p159" stroke="#00cc69" stroke-width="3" x1="239.3267" x2="235.0985" y1="182.5340" y2="183.2774" />
		<line fill="none" id="t1 p160" stroke="#00cc69" stroke-width="3" x1="235.0985" x2="230.7958" y1="183.2774" y2="184.3667" />
		<line fill="none" id="t1 p161" stroke="#00cc69" stroke-width="3" x1="230.7958" x2="226.5598" y1="184.3667" y2="184.0628" />
		<line fill="none" id="t1 p162" stroke="#00cc6d" stroke-width="3" x1="226.5598" x2="221.9823" y1="184.0628" y2="183.7729" />
		<line fill="none" id="t1 p163" stroke="#00cc71" stroke-width="3" x1="221.9823" x2="217.5971" y1="183.7729" y2="184.1844" />
		<line fill="none" id="t1 p164" stroke="#00cc75" stroke-width="3" x1="217.5971" x2="213.3297" y1="184.1844" y2="182.6649" />
		<line fill="none" id="t1 p165" stroke="#00cc79" stroke-width="3" x1="213.3297" x2="209.1016" y1="182.6649" y2="181.7579" />
		<line fill="none" id="t1 p166" stroke="#00cc7b" stroke-width="3" x1="209.1016" x2="204.8970" y1="181.7579" y2="180.9538" />
		<line fill="none" id="t1 p167" stroke="#00cc7e" stroke-width="3" x1="204.8970" x2="202.4159" y1="180.9538" y2="177.4988" />
		<line fill="none" id="t1 p168" stroke="#00cc80" stroke-width="3" x1="202.4159" x2="199.7424" y1="177.4988" y2="174.0251" />
		<line fill="none" id="t1 p169" stroke="#00cc82" stroke-width="3" x1="199.7424" x2="195.9108" y1="174.0251" y2="171.5706" />
		<line fill="none" id="t1 p170" stroke="#00cc86" stroke-width="3" x1="195.9108" x2="191.6905" y1="171.5706" y2="170.1633" />
		<line fill="none" id="t1 p171" stroke="#00cc86" stroke-width="3" x1="191.6905" x2="187.2857" y1="170.1633" y2="170.1306" />
		<line fill="none" id="t1 p172" stroke="#00cc88" stroke-width="3" x1="187.2857" x2="183.4541" y1="170.1306" y2="167.7836" />
		<line fill="none" id="t1 p173" stroke="#00cc88" stroke-width="3" x1="183.4541" x2="180.1643" y1="167.7836" y2="164.7634" />
		<line fill="none" id="t1 p174" stroke="#00cc88" stroke-width="3" x1="180.1643" x2="175.5632" y1="164.7634" y2="164.0949" />
		<line fill="none" id="t1 p175" stroke="#00cc8c" stroke-width="3" x1="175.5632" x2="171.8218" y1="164.0949" y2="161.7713" />
		<line fill="none" id="t1 p176" stroke="#00cc8e" stroke-width="3" x1="171.8218" x2="168.3357" y1="161.7713" y2="159.0316" />
		<line fill="none" id="t1 p177" stroke="#00cc92" stroke-width="3" x1="168.3357" x2="164.0840" y1="159.0316" y2="158.1293" />
		<line fill="none" id="t1 p178" stroke="#00cc98" stroke-width="3" x1="164.0840" x2="159.5850" y1="158.1293" y2="156.3620" />
		<line fill="none" id="t1 p179" stroke="#00cc9c" stroke-width="3" x1="159.5850" x2="155.8280" y1="156.3620" y2="153.6363" />
		<line fill="none" id="t1 p180" stroke="#00cca0" stroke-width="3" x1="155.8280" x2="155.3883" y1="153.6363" y2="149.1481" />
		<line fill="none" id="t1 p181" stroke="#00cca2" stroke-width="3" x1="155.3883" x2="155.1252" y1="149.1481" y2="144.4215" />
		<line fill="none" id="t1 p182" stroke="#00cca4" stroke-width="3" x1="155.1252" x2="156.8369" y1="144.4215" y2="140.1623" />
		<line fill="none" id="t1 p183" stroke="#00cca8" stroke-width="3" x1="156.8369" x2="157.9087" y1="140.1623" y2="135.9359" />
		<line fill="none" id="t1 p184" stroke="#00ccaa" stroke-width="3" x1="157.9087" x2="157.7202" y1="135.9359" y2="131.3916" />
		<line fill="none" id="t1 p185" stroke="#00ccad" stroke-width="3" x1="157.7202" x2="158.2384" y1="131.3916" y2="127.2072" />
		<line fill="none" id="t1 p186" stroke="#00ccaf" stroke-width="3" x1="158.2384" x2="156.7034" y1="127.2072" y2="123.2566" />
		<line fill="none" id="t1 p187" stroke="#00ccaf" stroke-width="3" x1="156.7034" x2="153.7944" y1="123.2566" y2="119.9466" />
		<line fill="none" id="t1 p188" stroke="#00ccaf" stroke-width="3" x1="153.7944" x2="149.2090" y1="119.9466" y2="119.3762" />
		<line fill="none" id="t1 p189" stroke="#00ccaf" stroke-width="3" x1="149.2090" x2="145.3970" y1="119.3762" y2="117.2396" />
		<line fill="none" id="t1 p190" stroke="#00ccb1" stroke-width="3" x1="145.3970" x2="142.0561" y1="117.2396" y2="114.5888" />
		<line fill="none" id="t1 p191" stroke="#00ccb3" stroke-width="3" x1="142.0561" x2="137.6749" y1="114.5888" y2="113.5929" />
		<line fill="none" id="t1 p192" stroke="#00ccb3" stroke-width="3" x1="137.6749" x2="133.3997" y1="113.5929" y2="113.0132" />
		<line fill="none" id="t1 p193" stroke="#00ccb5" stroke-width="3" x1="133.3997" x2="129.1362" y1="113.0132" y2="112.8683" />
		<line fill="none" id="t1 p194" stroke="#00ccb7" stroke-width="3" x1="129.1362" x2="124.6764" y1="112.8683" y2="111.5639" />
		<line fill="none" id="t1 p195" stroke="#00ccb9" stroke-width="3" x1="124.6764" x2="121.0843" y1="111.5639" y2="108.8195" />
		<line fill="none" id="t1 p196" stroke="#00ccb9" stroke-width="3" x1="121.0843" x2="117.2252" y1="108.8195" y2="106.8232" />
		<line fill="none" id="t1 p197" stroke="#00ccbb" stroke-width="3" x1="117.2252" x2="113.5428" y1="106.8232" y2="104.6960" />
		<line fill="none" id="t1 p198" stroke="#00ccbb" stroke-width="3" x1="113.5428" x2="109.2165" y1="104.6960" y2="103.5552" />
		<line fill="none" id="t1 p199" stroke="#00ccbd" stroke-width="3" x1="109.2165" x2="104.9491" y1="103.5552" y2="101.9983" />
		<line fill="none" id="t1 p200" stroke="#00ccbf" stroke-width="3" x1="104.9491" x2="103.3277" y1="101.9983" y2="97.8841" />
		<line fill="none" id="t1 p201" stroke="#00ccc3" stroke-width="3" x1="103.3277" x2="106.2093" y1="97.8841" y2="93.8073" />
		<line fill="none" id="t1 p202" stroke="#00ccc5" stroke-width="3" x1="106.2093" x2="108.1997" y1="93.8073" y2="89.9315" />
		<line fill="none" id="t1 p203" stroke="#00ccc7" stroke-width="3" x1="108.1997" x2="111.3050" y1="89.9315" y2="86.2849" />
		<line fill="none" id="t1 p204" stroke="#00ccc9" stroke-width="3" x1="111.3050" x2="113.7783" y1="86.2849" y2="82.8439" />
		<line fill="none" id="t1 p205" stroke="#00cccb" stroke-width="3" x1="113.7783" x2="117.1585" y1="82.8439" y2="79.8658" />
		<line fill="none" id="t1 p206" stroke="#00cbcc" stroke-width="3" x1="117.1585" x2="119.2313" y1="79.8658" y2="76.1489" />
		<line fill="none" id="t1 p207" stroke="#00c9cc" stroke-width="3" x1="119.2313" x2="121.0961" y1="76.1489" y2="72.0581" />
		<line fill="none" id="t1 p208" stroke="#00c7cc" stroke-width="3" x1="121.0961" x2="120.2991" y1="72.0581" y2="67.6914" />
		<line fill="none" id="t1 p209" stroke="#00c7cc" stroke-width="3" x1="120.2991" x2="117.8573" y1="67.6914" y2="64.1990" />
		<line fill="none" id="t1 p210" stroke="#00c7cc" stroke-width="3" x1="117.8573" x2="113.9746" y1="64.1990" y2="62.5019" />
		<line fill="none" id="t1 p211" stroke="#00c9cc" stroke-width="3" x1="113.9746" x2="109.5188" y1="62.5019" y2="63.1892" />
		<line fill="none" id="t1 p212" stroke="#00c9cc" stroke-width="3" x1="109.5188" x2="105.1375" y1="63.1892" y2="65.2136" />
		<line fill="none" id="t1 p213" stroke="#00c7cc" stroke-width="3" x1="105.1375" x2="100.9604" y1="65.2136" y2="65.9102" />
		<line fill="none" id="t1 p214" stroke="#00c5cc" stroke-width="3" x1="100.9604" x2="97.2466" y1="65.9102" y2="68.2384" />
		<line fill="none" id="t1 p215" stroke="#00c3cc" stroke-width="3" x1="97.2466" x2="93.4425" y1="68.2384" y2="70.5340" />
		<line fill="none" id="t1 p216" stroke="#00bfcc" stroke-width="3" x1="93.4425" x2="89.5323" y1="70.5340" y2="73.0352" />
		<line fill="none" id="t1 p217" stroke="#00bacc" stroke-width="3" x1="89.5323" x2="86.4505" y1="73.0352" y2="76.2471" />
		<line fill="none" id="t1 p218" stroke="#00b6cc" stroke-width="3" x1="86.4505" x2="86.4505" y1="76.2471" y2="76.2471" />
		<line fill="none" id="t1 p219" stroke="#00b0cc" stroke-width="3" x1="86.4505" x2="86.4505" y1="76.2471" y2="76.2471" />
		<line fill="none" id="t1 p220" stroke="#00accc" stroke-width="3" x1="86.4505" x2="80.5971" y1="76.2471" y2="78.5099" />
		<line fill="none" id="t1 p221" stroke="#00aacc" stroke-width="3" x1="80.5971" x2="77.1463" y1="78.5099" y2="81.3385" />
		<line fill="none" id="t1 p222" stroke="#00aacc" stroke-width="3" x1="77.1463" x2="72.7415" y1="81.3385" y2="82.9374" />
		<line fill="none" id="t1 p223" stroke="#00a8cc" stroke-width="3" x1="72.7415" x2="68.4584" y1="82.9374" y2="83.9846" />
		<line fill="none" id="t1 p224" stroke="#00a4cc" stroke-width="3" x1="68.4584" x2="64.2146" y1="83.9846" y2="85.6958" />
		<line fill="none" id="t1 p225" stroke="#009ecc" stroke-width="3" x1="64.2146" x2="64.2146" y1="85.6958" y2="85.6958" />
		<line fill="none" id="t1 p226" stroke="#009ccc" stroke-width="3" x1="64.2146" x2="64.2146" y1="85.6958" y2="85.6958" />
		<line fill="none" id="t1 p227" stroke="#009acc" stroke-width="3" x1="64.2146" x2="57.9175" y1="85.6958" y2="89.9269" />
		<line fill="none" id="t1 p228" stroke="#0098cc" stroke-width="3" x1="57.9175" x2="53.9446" y1="89.9269" y2="91.3622" />
		<line fill="none" id="t1 p229" stroke="#0092cc" stroke-width="3" x1="53.9446" x2="51.8757" y1="91.3622" y2="95.0416" />
		<line fill="none" id="t1 p230" stroke="#0087cc" stroke-width="3" x1="51.8757" x2="50.8000" y1="95.0416" y2="99.1979" />
		<line fill="none" id="t1 p231" stroke="#007fcc" stroke-width="3" x1="50.8000" x2="47.0037" y1="99.1979" y2="101.5635" />
		<line fill="none" id="t1 p232" stroke="#0079cc" stroke-width="3" x1="47.0037" x2="44.1378" y1="101.5635" y2="104.9578" />
		<line fill="none" id="t1 p233" stroke="#0075cc" stroke-width="3" x1="44.1378" x2="41.5586" y1="104.9578" y2="108.4548" />
		<line fill="none" id="t1 p234" stroke="#0071cc" stroke-width="3" x1="41.5586" x2="41.3426" y1="108.4548" y2="113.0880" />
		<line fill="none" id="t1 p235" stroke="#006dcc" stroke-width="3" x1="41.3426" x2="42.6539" y1="113.0880" y2="117.6978" />
		<line fill="none" id="t1 p236" stroke="#006bcc" stroke-width="3" x1="42.6539" x2="42.6342" y1="117.6978" y2="121.9897" />
		<line fill="none" id="t1 p237" stroke="#0067cc" stroke-width="3" x1="42.6342" x2="41.7117" y1="121.9897" y2="126.2301" />
		<line fill="none" id="t1 p238" stroke="#0065cc" stroke-width="3" x1="41.7117" x2="40.0000" y1="126.2301" y2="130.4986" />
		<line fill="none" id="t1 p239" stroke="#0060cc" stroke-width="3" x1="40.0000" x2="41.5311" y1="130.4986" y2="134.6876" />
		<line fill="none" id="t1 p240" stroke="#005acc" stroke-width="3" x1="41.5311" x2="44.5500" y1="134.6876" y2="137.8340" />
		<line fill="none" id="t1 p241" stroke="#0054cc" stroke-width="3" x1="44.5500" x2="47.9891" y1="137.8340" y2="140.7654" />
		<line fill="none" id="t1 p242" stroke="#0050cc" stroke-width="3" x1="47.9891" x2="51.1886" y1="140.7654" y2="143.8558" />
		<line fill="none" id="t1 p243" stroke="#0050cc" stroke-width="3" x1="51.1886" x2="54.0859" y1="143.8558" y2="147.1658" />
		<line fill="none" id="t1 p244" stroke="#004ecc" stroke-width="3" x1="54.0859" x2="56.2844" y1="147.1658" y2="150.9434" />
		<line fill="none" id="t1 p245" stroke="#004ecc" stroke-width="3" x1="56.2844" x2="57.3915" y1="150.9434" y2="155.0062" />
		<line fill="none" id="t1 p246" stroke="#004ecc" stroke-width="3" x1="57.3915" x2="58.6242" y1="155.0062" y2="159.1344" />
		<line fill="none" id="t1 p247" stroke="#004acc" stroke-width="3" x1="58.6242" x2="58.5614" y1="159.1344" y2="163.4777" />
		<line fill="none" id="t1 p248" stroke="#0046cc" stroke-width="3" x1="58.5614" x2="57.4582" y1="163.4777" y2="167.6153" />
		<line fill="none" id="t1 p249" stroke="#0040cc" stroke-width="3" x1="57.4582" x2="58.1060" y1="167.6153" y2="172.1129" />
		<line fill="none" id="t1 p250" stroke="#003acc" stroke-width="3" x1="58.1060" x2="58.8715" y1="172.1129" y2="176.2552" />
		<line fill="none" id="t1 p251" stroke="#0036cc" stroke-width="3" x1="58.8715" x2="60.4183" y1="176.2552" y2="180.3787" />
		<line fill="none" id="t1 p252" stroke="#0034cc" stroke-width="3" x1="60.4183" x2="62.7149" y1="180.3787" y2="183.9833" />
		<line fill="none" id="t1 p253" stroke="#002fcc" stroke-width="3" x1="62.7149" x2="62.7149" y1="183.9833" y2="183.9833" />
		<line fill="none" id="t1 p254" stroke="#002dcc" stroke-width="3" x1="62.7149" x2="62.7149" y1="183.9833" y2="183.9833" />
		<line fill="none" id="t1 p255" stroke="#002bcc" stroke-width="3" x1="62.7149" x2="63.7631" y1="183.9833" y2="188.5978" />
		<line fill="none" id="t1 p256" stroke="#0029cc" stroke-width="3" x1="63.7631" x2="63.5393" y1="188.5978" y2="193.0533" />
		<line fill="none" id="t1 p257" stroke="#0027cc" stroke-width="3" x1="63.5393" x2="63.6650" y1="193.0533" y2="197.2797" />
		<line fill="none" id="t1 p258" stroke="#0021cc" stroke-width="3" x1="63.6650" x2="62.7856" y1="197.2797" y2="201.4126" />
		<line fill="none" id="t1 p259" stroke="#001dcc" stroke-width="3" x1="62.7856" x2="62.7816" y1="201.4126" y2="205.9195" />
		<line fill="none" id="t1 p260" stroke="#001bcc" stroke-width="3" x1="62.7816" x2="63.9437" y1="205.9195" y2="209.9964" />
		<line fill="none" id="t1 p261" stroke="#0019cc" stroke-width="3" x1="63.9437" x2="62.9073" y1="209.9964" y2="214.3069" />
		<line fill="none" id="t1 p262" stroke="#0019cc" stroke-width="3" x1="62.9073" x2="61.7217" y1="214.3069" y2="218.6175" />
		<line fill="none" id="t1 p263" stroke="#001bcc" stroke-width="3" x1="61.7217" x2="61.3252" y1="218.6175" y2="222.8673" />
		<line fill="none" id="t1 p264" stroke="#001bcc" stroke-width="3" x1="61.3252" x2="62.1574" y1="222.8673" y2="227.1124" />
		<line fill="none" id="t1 p265" stroke="#001dcc" stroke-width="3" x1="62.1574" x2="62.3734" y1="227.1124" y2="231.5258" />
		<line fill="none" id="t1 p266" stroke="#001dcc" stroke-width="3" x1="62.3734" x2="60.4850" y1="231.5258" y2="235.5278" />
		<line fill="none" id="t1 p267" stroke="#001dcc" stroke-width="3" x1="60.4850" x2="60.2024" y1="235.5278" y2="239.7636" />
		<line fill="none" id="t1 p268" stroke="#001dcc" stroke-width="3" x1="60.2024" x2="59.4329" y1="239.7636" y2="244.2752" />
		<line fill="none" id="t1 p269" stroke="#001bcc" stroke-width="3" x1="59.4329" x2="60.1199" y1="244.2752" y2="248.4455" />
		<line fill="none" id="t1 p270" stroke="#0017cc" stroke-width="3" x1="60.1199" x2="62.1339" y1="248.4455" y2="252.4428" />
		<line fill="none" id="t1 p271" stroke="#0013cc" stroke-width="3" x1="62.1339" x2="66.4916" y1="252.4428" y2="254.3036" />
		<line fill="none" id="t1 p272" stroke="#000fcc" stroke-width="3" x1="66.4916" x2="66.4916" y1="254.3036" y2="254.3036" />
		<line fill="none" id="t1 p273" stroke="#000dcc" stroke-width="3" x1="66.4916" x2="66.4916" y1="254.3036" y2="254.3036" />
		<line fill="none" id="t1 p274" stroke="#000dcc" stroke-width="3" x1="66.4916" x2="70.4802" y1="254.3036" y2="255.7623" />
		<line fill="none" id="t1 p275" stroke="#000dcc" stroke-width="3" x1="70.4802" x2="70.4802" y1="255.7623" y2="255.7623" />
		<line fill="none" id="t1 p276" stroke="#000dcc" stroke-width="3" x1="70.4802" x2="70.4802" y1="255.7623" y2="255.7623" />
		<line fill="none" id="t1 p277" stroke="#000dcc" stroke-width="3" x1="70.4802" x2="75.5446" y1="255.7623" y2="257.9222" />
		<line fill="none" id="t1 p278" stroke="#000fcc" stroke-width="3" x1="75.5446" x2="75.5446" y1="257.9222" y2="257.9222" />
		<line fill="none" id="t1 p279" stroke="#000fcc" stroke-width="3" x1="75.5446" x2="75.5446" y1="257.9222" y2="257.9222" />
		<line fill="none" id="t1 p280" stroke="#000fcc" stroke-width="3" x1="75.5446" x2="79.3762" y1="257.9222" y2="260.5497" />
		<line fill="none" id="t1 p281" stroke="#0011cc" stroke-width="3" x1="79.3762" x2="79.3762" y1="260.5497" y2="260.5497" />
		<line fill="none" id="t1 p282" stroke="#000fcc" stroke-width="3" x1="79.3762" x2="79.3762" y1="260.5497" y2="260.5497" />
		<line fill="none" id="t1 p283" stroke="#0011cc" stroke-width="3" x1="79.3762" x2="86.2189" y1="260.5497" y2="265.2203" />
		<line fill="none" id="t1 p284" stroke="#0011cc" stroke-width="3" x1="86.2189" x2="86.2189" y1="265.2203" y2="265.2203" />
		<line fill="none" id="t1 p285" stroke="#0011cc" stroke-width="3" x1="86.2189" x2="86.2189" y1="265.2203" y2="265.2203" />
		<line fill="none" id="t1 p286" stroke="#0011cc" stroke-width="3" x1="86.2189" x2="90.1565" y1="265.2203" y2="268.0394" />
		<line fill="none" id="t1 p287" stroke="#0013cc" stroke-width="3" x1="90.1565" x2="94.7576" y1="268.0394" y2="268.6285" />
		<line fill="none" id="t1 p288" stroke="#0013cc" stroke-width="3" x1="94.7576" x2="94.7576" y1="268.6285" y2="268.6285" />
		<line fill="none" id="t1 p289" stroke="#0013cc" stroke-width="3" x1="94.7576" x2="94.7576" y1="268.6285" y2="268.6285" />
		<line fill="none" id="t1 p290" stroke="#0013cc" stroke-width="3" x1="94.7576" x2="94.4208" y1="268.6285" y2="269.4663" />
		<line fill="none" id="t1 p291" stroke="#0013cc" stroke-width="3" x1="94.4208" x2="97.2030" y1="269.4663" y2="270.4460" />
		<line fill="none" id="t1 p292" stroke="#0013cc" stroke-width="3" x1="97.2030" x2="99.3837" y1="270.4460" y2="271.3429" />
		<line fill="none" id="t1 p293" stroke="#000dcc" stroke-width="3" x1="99.3837" x2="102.2127" y1="271.3429" y2="271.3539" />
		<line fill="none" id="t1 p294" stroke="#0800cc" stroke-width="3" x1="102.2127" x2="104.1374" y1="271.3539" y2="272.6937" />
		<line fill="none" id="t1 p295" stroke="#1a00cc" stroke-width="3" x1="104.1374" x2="104.8488" y1="272.6937" y2="274.4143" />
		<line fill="none" id="t1 p296" stroke="#1c00cc" stroke-width="3" x1="104.8488" x2="106.1190" y1="274.4143" y2="278.9514" />
		<line fill="none" id="t1 p297" stroke="#1c00cc" stroke-width="3" x1="106.1190" x2="106.1622" y1="278.9514" y2="283.1919" />
		<line fill="none" id="t1 p298" stroke="#2400cc" stroke-width="3" x1="106.1622" x2="106.6294" y1="283.1919" y2="287.7082" />
		<line fill="none" id="t1 p299" stroke="#3100cc" stroke-width="3" x1="106.6294" x2="106.6294" y1="287.7082" y2="287.7082" />
		<line fill="none" id="t1 p300" stroke="#3700cc" stroke-width="3" x1="106.6294" x2="106.6294" y1="287.7082" y2="287.7082" />
		<line fill="none" id="t1 p301" stroke="#3700cc" stroke-width="3" x1="106.6294" x2="106.6294" y1="287.7082" y2="287.7082" />
		<line fill="none" id="t1 p302" stroke="#3500cc" stroke-width="3" x1="106.6294" x2="107.0298" y1="287.7082" y2="291.9860" />
		<line fill="none" id="t1 p303" stroke="#3500cc" stroke-width="3" x1="107.0298" x2="106.4134" y1="291.9860" y2="296.3620" />
		<line fill="none" id="t1 p304" stroke="#3b00cc" stroke-width="3" x1="106.4134" x2="106.4134" y1="296.3620" y2="296.3620" />
		<line fill="none" id="t1 p305" stroke="#4100cc" stroke-width="3" x1="106.4134" x2="106.4134" y1="296.3620" y2="296.3620" />
		<line fill="none" id="t1 p306" stroke="#4100cc" stroke-width="3" x1="106.4134" x2="109.6954" y1="296.3620" y2="301.6451" />
		<line fill="none" id="t1 p307" stroke="#3d00cc" stroke-width="3" x1="109.6954" x2="112.2001" y1="301.6451" y2="305.1655" />
		<line fill="none" id="t1 p308" stroke="#3f00cc" stroke-width="3" x1="112.2001" x2="112.2001" y1="305.1655" y2="305.1655" />
		<line fill="none" id="t1 p309" stroke="#4b00cc" stroke-width="3" x1="112.2001" x2="112.2001" y1="305.1655" y2="305.1655" />
		<line fill="none" id="t1 p310" stroke="#5500cc" stroke-width="3" x1="112.2001" x2="115.0974" y1="305.1655" y2="309.7893" />
		<line fill="none" id="t1 p311" stroke="#5300cc" stroke-width="3" x1="115.0974" x2="115.0974" y1="309.7893" y2="309.7893" />
		<line fill="none" id="t1 p312" stroke="#4f00cc" stroke-width="3" x1="115.0974" x2="115.0974" y1="309.7893" y2="309.7893" />
		<line fill="none" id="t1 p313" stroke="#4d00cc" stroke-width="3" x1="115.0974" x2="117.7591" y1="309.7893" y2="316.8162" />
		<line fill="none" id="t1 p314" stroke="#4f00cc" stroke-width="3" x1="117.7591" x2="117.7591" y1="316.8162" y2="316.8162" />
		<line fill="none" id="t1 p315" stroke="#4f00cc" stroke-width="3" x1="117.7591" x2="117.7591" y1="316.8162" y2="316.8162" />
		<line fill="none" id="t1 p316" stroke="#4f00cc" stroke-width="3" x1="117.7591" x2="122.2110" y1="316.8162" y2="321.6551" />
		<line fill="none" id="t1 p317" stroke="#4d00cc" stroke-width="3" x1="122.2110" x2="124.8021" y1="321.6551" y2="325.0025" />
		<line fill="none" id="t1 p318" stroke="#4f00cc" stroke-width="3" x1="124.8021" x2="128.4727" y1="325.0025" y2="327.1719" />
		<line fill="none" id="t1 p319" stroke="#5500cc" stroke-width="3" x1="128.4727" x2="132.1238" y1="327.1719" y2="330.0331" />
		<line fill="none" id="t1 p320" stroke="#6600cc" stroke-width="3" x1="132.1238" x2="133.5685" y1="330.0331" y2="334.1146" />
		<line fill="none" id="t1 p321" stroke="#7800cc" stroke-width="3" x1="133.5685" x2="137.9104" y1="334.1146" y2="334.4138" />
		<line fill="none" id="t1 p322" stroke="#8700cc" stroke-width="3" x1="137.9104" x2="141.3534" y1="334.4138" y2="337.0927" />
		<line fill="none" id="t1 p323" stroke="#9300cc" stroke-width="3" x1="141.3534" x2="145.8014" y1="337.0927" y2="337.6070" />
		<line fill="none" id="t1 p324" stroke="#9b00cc" stroke-width="3" x1="145.8014" x2="145.8014" y1="337.6070" y2="337.6070" />
		<line fill="none" id="t1 p325" stroke="#9f00cc" stroke-width="3" x1="145.8014" x2="145.8014" y1="337.6070" y2="337.6070" />
		<line fill="none" id="t1 p326" stroke="#a100cc" stroke-width="3" x1="145.8014" x2="146.0487" y1="337.6070" y2="342.8620" />
		<line fill="none" id="t1 p327" stroke="#a100cc" stroke-width="3" x1="146.0487" x2="149.9549" y1="342.8620" y2="345.0967" />
		<line fill="none" id="t1 p328" stroke="#a300cc" stroke-width="3" x1="149.9549" x2="152.7226" y1="345.0967" y2="348.7668" />
		<line fill="none" id="t1 p329" stroke="#ab00cc" stroke-width="3" x1="152.7226" x2="154.0810" y1="348.7668" y2="352.7828" />
		<line fill="none" id="t1 p330" stroke="#b300cc" stroke-width="3" x1="154.0810" x2="154.2498" y1="352.7828" y2="357.2196" />
		<line fill="none" id="t1 p331" stroke="#be00cc" stroke-width="3" x1="154.2498" x2="154.2498" y1="357.2196" y2="357.2196" />
		<line fill="none" id="t1 p332" stroke="#c600cc" stroke-width="3" x1="154.2498" x2="154.2498" y1="357.2196" y2="357.2196" />
	</g>
	<g id="Manquehue x cara norte (t1) label" opacity="1" transform="translate(0,0)" x="658" y="40">		<text fill="#000000" font-family="Verdana" font-size="10" id="Manquehue x cara norte (t1) name" opacity="1" text-anchor="middle" x="658" y="40">Manquehue x cara norte
		</text>
	</g>
	<g id="Waypoints">
		<circle cx="403.9136" cy="76.6118" fill="#000000" fill-opacity="0" id="Torre AT (w1) marker" r="3.6" stroke="#000000" stroke-opacity="1" stroke-width="1.0" />
		<g id="Torre AT (w1) label" transform="translate(0,0)" x="398.3136" y="76.6118">			<text fill="#000000" font-family="Verdana" font-size="10" id="Torre AT (w1) name" opacity="1" text-anchor="end" x="398.3136" y="76.6118">Torre AT
			</text>
		</g>
		<circle cx="348.0567" cy="156.9682" fill="#000000" fill-opacity="0" id="Inicio cono (w2) marker" r="3.6" stroke="#000000" stroke-opacity="1" stroke-width="1.0" />
		<g id="Inicio cono (w2) label" transform="translate(0,0)" x="353.6567" y="156.9682">			<text fill="#000000" font-family="Verdana" font-size="10" id="Inicio cono (w2) name" opacity="1" text-anchor="start" x="353.6567" y="156.9682">Inicio cono
			</text>
		</g>
		<circle cx="61.7277" cy="224.4265" fill="#000000" fill-opacity="0" id="Empalme Traves&#237;a del Guanaco (w3) marker" r="3.6" stroke="#000000" stroke-opacity="1" stroke-width="1.0" />
		<g id="Empalme Traves&#237;a del Guanaco (w3) label" transform="translate(0,0)" x="67.3277" y="224.4265">			<text fill="#000000" font-family="Verdana" font-size="10" id="Empalme Traves&#237;a del Guanaco (w3) name" opacity="1" text-anchor="start" x="67.3277" y="224.4265">Empalme Traves&#237;a del Guanaco
			</text>
		</g>
		<circle cx="110.4974" cy="87.6455" fill="#000000" fill-opacity="0" id="Bosquete (w4) marker" r="3.6" stroke="#000000" stroke-opacity="1" stroke-width="1.0" />
		<g id="Bosquete (w4) label" transform="translate(0,0)" x="116.0974" y="87.6455">			<text fill="#000000" font-family="Verdana" font-size="10" id="Bosquete (w4) name" opacity="1" text-anchor="start" x="116.0974" y="87.6455">Bosquete
			</text>
		</g>
	</g>
	<g id="Legend" onmousedown="trackGroup(evt,'Legend',1)" onmousemove="moveGroup(evt,'Legend')" onmouseup="trackGroup(evt,'Legend',0)" transform="translate(0,0)" x="6" y="383.219613930532">		<text fill="#cc0000" font-family="Verdana" font-size="10" id="legend label 1" text-anchor="start" x="6" y="383.219613930532">985.5
		</text>		<text fill="#98cc00" font-family="Verdana" font-size="10" id="legend label 2" text-anchor="start" x="6" y="373.219613930532">1145.9
		</text>		<text fill="#00cc67" font-family="Verdana" font-size="10" id="legend label 3" text-anchor="start" x="6" y="363.219613930532">1306.3
		</text>		<text fill="#0034cc" font-family="Verdana" font-size="10" id="legend label 4" text-anchor="start" x="6" y="353.219613930532">1466.7
		</text>		<text fill="#cc00cc" font-family="Verdana" font-size="10" id="legend label 5" text-anchor="start" x="6" y="343.219613930532">1627.1
		</text>		<text fill="#000000" font-family="Verdana" font-size="10" id="legend header" onmouseout="highlight('Legend',0)" onmouseover="highlight('Legend',1)" text-anchor="start" x="6" y="331.219613930532">Elevation (m)
		</text>
	</g>
	<g id="Scale" onmousedown="trackGroup(evt,'Scale',1)" onmousemove="moveGroup(evt,'Scale')" onmouseout="highlight('Scale',0)" onmouseover="highlight('Scale',1)" onmouseup="trackGroup(evt,'Scale',0)" transform="translate(0,0)" x="350" y="198.609806965266">
		<line fill="none" id="scale_line" stroke="#000000" stroke-width="1" x1="139.301643568925" x2="560.698356431075" y1="379.219613930532" y2="379.219613930532" />
		<line fill="none" id="scale_end1" stroke="#000000" stroke-width="1" x1="139.301643568925" x2="139.301643568925" y1="377.219613930532" y2="381.219613930532" />
		<line fill="none" id="scale_end2" stroke="#000000" stroke-width="1" x1="560.698356431075" x2="560.698356431075" y1="377.219613930532" y2="381.219613930532" />		<text fill="#000000" font-family="Verdana" font-size="10" id="scale_text" text-anchor="middle" x="350" y="377.219613930532">1 km
		</text>
	</g>
	<g id="Logo" onmousedown="trackGroup(evt,'Logo',1)" onmousemove="moveGroup(evt,'Logo')" onmouseout="highlight('Logo',0)" onmouseover="highlight('Logo',1)" onmouseup="trackGroup(evt,'Logo',0)" transform="translate(0,0)" x="350" y="394.219613930532">
		<rect fill="#FFFFFF" height="11" id="logo box" opacity="0.6" width="160" x="270" y="385.219613930532" />
		<a target="_blank" xlink:href="http://www.gpsvisualizer.com/">			<text fill="#000000" font-family="Verdana" font-size="9" id="logo_text" text-anchor="middle" transform="translate(350,394.219613930532) rotate(0) translate(-350,-394.219613930532)" x="350" y="394.219613930532">created by GPSVisualizer.com
			</text>
		</a>
	</g>
	<g id="Title" onmousedown="trackGroup(evt,'Title',1)" onmousemove="moveGroup(evt,'Title')" onmouseout="highlight('Title',0)" onmouseover="highlight('Title',1)" onmouseup="trackGroup(evt,'Title',0)" transform="translate(0,0)" x="350" y="18.75">		<text fill="#000000" font-family="Verdana" font-size="15" id="Title text 1" text-anchor="middle" x="350" y="18.75">Manquehue desde Los Trapenses.kmz
		</text>
	</g>
	<rect fill="none" height="396" id="image_boundary" opacity="0" stroke="#000000" stroke-width="1" width="699" x="0.5" y="0.5" /><!-- debugging stuff:
 --><!-- key = 20140717131057-28248
 --><!-- min. altitude = 985.517
 --><!-- max. altitude = 1627.142
 --><!-- colorize min = 985.517
 --><!-- colorize max = 1627.142
 --><!-- colorize range = 641.625
 --><!-- upper left (data) = -33.3439049,-70.5852257
 --><!-- lower right (data) = -33.35069,-70.5694329
 --><!-- upper left (drawing) = -33.343049328692,-70.5862445903226
 --><!-- lower right (drawing) = -33.351545571308,-70.5684140096774
 --><!-- center = -33.34729745,-70.5773293
 --><!-- width,height (pixels) = 700,397.219613930532
 --><!-- width,height (degrees) = 0.0178305806451675,0.00849624261591941
 --><!-- scale = 6749, resolution = 2.381 m/pixel
 --><!-- map = http://www2.demis.nl/wms/wms.asp?version=1.1.0&wms=WorldMap&request=GetMap&srs=EPSG:4326&bbox=-70.5862446,-33.3515456,-70.5684140,-33.3430493&WIDTH=700&HEIGHT=397&format=PNG&transparent=FALSE&exceptions=INIMAGE&wrapdateline=TRUE&layers=Bathymetry,Countries,Topography,Builtup+areas,Coastlines,Waterbodies,Rivers,Streams,Highways,Roads,Railroads,Trails,Hillshading,Borders,Settlements,Cities,Airports
 --><!-- backgrounds = http://www.gpsvisualizer.com/backgrounds?max_dimension=700&margin=0&mw=-70.5862445903226&me=-70.5684140096774&ms=-33.351545571308&mn=-33.343049328692&submitted=1
 --><!-- e-mail = 
 --><!-- 
	Generated using the Perl SVG Module V2.49
	by Ronan Oger
	Info: http://www.roitsystems.com/
 -->
</svg>